<svg version="1.1" xmlns="http://www.w3.org/2000/svg" xmlns:xlink="http://www.w3.org/1999/xlink" width="800" height="800"><defs/><g transform="scale(2,2)"><g id="background-db39f602"><rect fill="white" stroke="none" x="0" y="0" width="400" height="400" class="dcg-svg-background"/></g><g id="graphpaper-db39f602"><g id="axis-db39f602"><g id="yaxis-db39f602"><title>Im</title><g><path fill="none" stroke="rgb(0,0,0)" class="dcg-svg-axis-line" paint-order="fill stroke markers" d=" M 163 0 L 163 400" stroke-opacity="0.9" stroke-miterlimit="10" stroke-width="1.5" stroke-dasharray=""/></g></g><g id="xaxis-db39f602"><title>Re</title><g><path fill="none" stroke="rgb(0,0,0)" class="dcg-svg-axis-line" paint-order="fill stroke markers" d=" M 0 200 L 400 200" stroke-opacity="0.9" stroke-miterlimit="10" stroke-width="1.5" stroke-dasharray=""/></g></g><g><g class="dcg-svg-axis-value"><text fill="none" stroke="#ffffff" font-family="Arial" font-size="14px" font-style="normal" font-weight="normal" text-decoration="normal" x="153.67444659409358" y="215.3976596873926" text-anchor="middle" stroke-miterlimit="2" stroke-width="3" stroke-dasharray="">0</text><text fill="#000000" stroke="none" font-family="Arial" font-size="14px" font-style="normal" font-weight="normal" text-decoration="normal" x="153.67444659409358" y="215.3976596873926" text-anchor="middle">0</text></g><g><path fill="none" stroke="rgb(0,0,0)" class="dcg-svg-tickmark" paint-order="fill stroke markers" d=" M 11 197 L 11 203 M 314 197 L 314 203 M 160 351 L 166 351 M 160 48 L 166 48" stroke-opacity="0.9" stroke-miterlimit="2" stroke-width="1.5" stroke-dasharray=""/></g><g class="dcg-svg-axis-value dcg-svg-offcenter-axis-value"><text fill="none" stroke="#ffffff" font-family="Arial" font-size="14px" font-style="normal" font-weight="normal" text-decoration="normal" x="9.22412109375" y="215.3976596873926" text-anchor="middle" stroke-miterlimit="2" stroke-width="3" stroke-dasharray="">-2</text><text fill="#000000" stroke="none" font-family="Arial" font-size="14px" font-style="normal" font-weight="normal" text-decoration="normal" x="9.22412109375" y="215.3976596873926" text-anchor="middle">-2</text></g><g class="dcg-svg-axis-value"><text fill="none" stroke="#ffffff" font-family="Arial" font-size="14px" font-style="normal" font-weight="normal" text-decoration="normal" x="314.37620670078275" y="215.3976596873926" text-anchor="middle" stroke-miterlimit="2" stroke-width="3" stroke-dasharray="">2</text><text fill="#000000" stroke="none" font-family="Arial" font-size="14px" font-style="normal" font-weight="normal" text-decoration="normal" x="314.37620670078275" y="215.3976596873926" text-anchor="middle">2</text></g><g class="dcg-svg-axis-value"><text fill="none" stroke="#ffffff" font-family="Arial" font-size="14px" font-style="normal" font-weight="normal" text-decoration="normal" x="151.34339190659358" y="355.20635338783177" text-anchor="middle" stroke-miterlimit="2" stroke-width="3" stroke-dasharray="">-2</text><text fill="#000000" stroke="none" font-family="Arial" font-size="14px" font-style="normal" font-weight="normal" text-decoration="normal" x="151.34339190659358" y="355.20635338783177" text-anchor="middle">-2</text></g><g class="dcg-svg-axis-value"><text fill="none" stroke="#ffffff" font-family="Arial" font-size="14px" font-style="normal" font-weight="normal" text-decoration="normal" x="153.67444659409358" y="51.58896598695345" text-anchor="middle" stroke-miterlimit="2" stroke-width="3" stroke-dasharray="">2</text><text fill="#000000" stroke="none" font-family="Arial" font-size="14px" font-style="normal" font-weight="normal" text-decoration="normal" x="153.67444659409358" y="51.58896598695345" text-anchor="middle">2</text></g></g><g class="dcg-svg-axis-label"><text fill="none" stroke="#ffffff" font-family="Times" font-size="20px" font-style="italic" font-weight="normal" text-decoration="normal" x="363.90625" y="232.5896596873926" text-anchor="start" stroke-miterlimit="2" stroke-width="3" stroke-dasharray="">Re</text><text fill="#000000" stroke="none" font-family="Times" font-size="20px" font-style="italic" font-weight="normal" text-decoration="normal" x="363.90625" y="232.5896596873926" text-anchor="start">Re</text></g><g class="dcg-svg-axis-label" transform="translate(119.01575518784358,29)"><text fill="none" stroke="#ffffff" font-family="Times" font-size="20px" font-style="italic" font-weight="normal" text-decoration="normal" x="0" y="0" text-anchor="start" stroke-miterlimit="2" stroke-width="3" stroke-dasharray="">Im</text><text fill="#000000" stroke="none" font-family="Times" font-size="20px" font-style="italic" font-weight="normal" text-decoration="normal" x="0" y="0" text-anchor="start">Im</text></g></g></g><g id="expressions-db39f602"><g id="sketch-db39f602"><title>Expression 4</title><path fill="#c74440" stroke="none" paint-order="stroke fill markers" d="" fill-opacity="0.4"/><g><path fill="none" stroke="#c74440" class="dcg-svg-curve" paint-order="fill stroke markers" d=" M 46.67691585050072 -5 L 46.67691585050072 -5 L 66.62705113679698 23.99794886320302 L 81.59335088233684 45.31249999999997 L 94.53125 63.2045674904997 L 102.22073905901007 73.43749999999997 L 108.59375 81.56064500376723 L 115.625 89.95174583099441 L 121.22055571555833 95.96694428444164 L 122.65625 97.37440716328689 L 127.54758665322828 101.56249999999997 L 130.25057369906202 103.32031249999997 L 132.46205467326706 104.33705467326702 L 133.60452199149296 104.67672800850703 L 135.57127737501588 104.90540068652058 L 136.71875 104.79965073596419 L 139.08230754404516 103.92605754404511 L 140.234375 103.13081645244593 L 141.81726078569733 101.56249999999999 L 142.65552199807595 100.46802199807594 L 143.75 98.696063853169 L 145.56848203628002 94.53125 L 146.72764841698222 90.47764841698219 L 147.32483792516462 87.49999999999999 L 147.891228907658 83.358771092342 L 148.28006204377948 77.96756204377947 L 148.37596928274758 73.43749999999999 L 148.21629846164674 66.40625 L 147.7794345994993 59.37499999999997 L 147.1420917241057 52.34374999999997 L 146.06635939899826 42.951691134665396 L 143.75 26.335689917098534 L 142.0543893554667 15.491889355466668 L 138.80002222809154 -3.9062500000000284 L 138.6088961832194 -5" stroke-linecap="round" stroke-linejoin="round" stroke-miterlimit="10" stroke-width="2" stroke-dasharray=""/></g><g><path fill="none" stroke="#c74440" class="dcg-svg-curve" paint-order="fill stroke markers" d=" M 218.85989337957594 -5 L 218.85989337957594 -5 L 213.70428861921084 17.54571138078913 L 205.46156637041867 52.34374999999997 L 202.15961652132324 66.40625 L 200 76.12648086608806 L 198.11119727396684 85.61119727396684 L 197.327454671319 90.17254532868098 L 196.85003487505094 93.32759137217194 L 196.2796527288845 97.84215272888447 L 195.92829360249908 101.56249999999999 L 195.68064883805334 105.88185116194663 L 195.65768510525078 111.28268510525075 L 195.90937912191785 115.62499999999999 L 196.58428264601716 120.8484836769914 L 197.42497646162354 124.88436323081176 L 198.84749720920843 129.6875 L 200.22828437214116 133.203125 L 200.49273453273344 133.79717501246188 L 200 134.0887588861006 L 194.9770531881384 136.07226827236332 L 192.9684868846413 136.71901311535868 L 185.9375 138.31852735246616 L 181.00908827359183 138.82158827359183 L 176.77508788887639 138.84991211112361 L 171.875 138.42520277017047 L 163.8626427298377 136.71875 L 157.8125 134.6805104244678 L 150.78125 131.7307667759843 L 143.75 128.76227987464085 L 140.234375 127.65588522875663 L 139.0236964644621 127.38255353553791 L 136.71875 127.03881040452089 L 132.40405303965443 126.97094696034556 L 127.43646266961001 127.43646266961 L 122.65625 127.94586223713007 L 115.62500000000001 128.26754611044288 L 114.18370471378742 128.2462047137874 L 108.59375 127.86249128769545 L 101.56250000000001 126.72228988977834 L 97.67948594096244 125.80448594096241 L 92.79616311703042 124.39133688296955 L 87.5 122.57124271310245 L 80.46875000000001 119.76521950867526 L 71.3988221036994 115.625 L 63.39680209773687 111.60319790226313 L 52.343750000000014 105.63765704009225 L 38.28125000000003 97.57262541018741 L 24.21875 89.15593774880276 L 10.096416996818022 80.46874999999999 L -5 70.9766128990955" stroke-linecap="round" stroke-linejoin="round" stroke-miterlimit="10" stroke-width="2" stroke-dasharray=""/></g><g><path fill="none" stroke="#c74440" class="dcg-svg-curve" paint-order="fill stroke markers" d=" M 86.49773687085377 197.48663812914623 L 86.49773687085377 197.48663812914623 L 86.65690601354271 200 L 86.59891228057387 200.90108771942613 L 86.08363460409944 203.515625 L 85.52975640947459 205.06100640947457 L 83.98437500000003 207.921451575888 L 81.91399212122472 210.546875 L 79.37343863291802 212.967188632918 L 77.23405286201053 214.62435572402097 L 73.43750000000001 217.04270048514755 L 65.97267542780655 220.66017542780654 L 64.9130284012811 221.09375 L 59.375000000000014 223.14245472397886 L 52.343750000000014 225.36018286380178 L 42.067933578141336 228.125 L 31.25000000000003 230.6796353660918 L 17.1875 233.70894317939968 L -5 238.16917369617133" stroke-linecap="round" stroke-linejoin="round" stroke-miterlimit="10" stroke-width="2" stroke-dasharray=""/></g><g><path fill="none" stroke="#c74440" class="dcg-svg-curve" paint-order="fill stroke markers" d=" M -5 161.02395132460055 L -5 161.02395132460055 L 17.1875 165.47038221400294 L 34.00008270205157 169.12491729794843 L 45.32188636696685 171.8843863669668 L 56.24382356746426 175.00617643253577 L 59.375000000000014 176.03684437419957 L 66.88700017570237 178.90625 L 73.43750000000001 182.1366534639376 L 77.53546989768869 184.77281020462266 L 80.46875000000001 187.18081504049258 L 83.45827830871802 190.5053183825639 L 83.98437500000001 191.25797185304336 L 84.99237761732033 192.96875 L 85.78695913597414 194.7713341359741 L 86.49773687085377 197.48663812914623" stroke-linecap="round" stroke-linejoin="round" stroke-miterlimit="10" stroke-width="2" stroke-dasharray=""/></g><g><path fill="none" stroke="#c74440" class="dcg-svg-curve" paint-order="fill stroke markers" d=" M 300.6722383752938 19.422238375293716 L 300.6722383752938 19.422238375293716 L 317.29149992000066 -5" stroke-linecap="round" stroke-linejoin="round" stroke-miterlimit="10" stroke-width="2" stroke-dasharray=""/></g><g><path fill="none" stroke="#c74440" class="dcg-svg-curve" paint-order="fill stroke markers" d=" M 405 52.3337070372004 L 405 52.3337070372004 L 379.4464879598604 70.07148795986032 L 354.34471263165875 87.84278736834128 L 333.59375 102.88993995919034 L 312.5 118.5811475942598 L 291.40625 134.26926787265526 L 284.375 139.19706938907228 L 277.34375 143.7503482687185 L 270.3125 147.7689578873762 L 262.6877330419578 151.3747669580422 L 256.25 153.74328899874976 L 253.10411546069724 154.66661546069724 L 249.21875 155.59069269341921 L 242.1875 156.63651993334207 L 238.671875 156.84143398988698 L 234.0383942290629 156.7601240109795 L 228.125 156.00744493164427 L 225.7965905844142 155.48409058441416 L 221.09375 153.96854872914489 L 218.8683539079056 153.00664609209437 L 214.0625 150.27289320837917 L 209.23951258831352 146.364724823373 L 206.7754399504199 143.75 L 205.63597175608822 142.35472175608822 L 203.15302723577884 138.7839839431153 L 201.04292224240987 134.9609375 L 200.603222237615 133.806347237615 L 201.90275108680356 133.203125 L 205.29138284247824 131.4453125 L 208.31102788549998 129.6875 L 213.61959879666543 126.17187499999997 L 214.0625 125.85468564616066 L 219.83269298714706 121.39519298714703 L 221.09375 120.3419672607755 L 228.125 113.97822306666842 L 235.15625 106.83735275822386 L 242.1875 99.00701154340268 L 249.21875 90.58626359633224 L 257.18118261817466 80.46874999999999 L 265.8235140021734 68.94851400217334 L 277.34375 52.97811489889418 L 289.1965960488745 36.0715960488744 L 300.6722383752938 19.422238375293716" stroke-linecap="round" stroke-linejoin="round" stroke-miterlimit="10" stroke-width="2" stroke-dasharray=""/></g><g><path fill="none" stroke="#c74440" class="dcg-svg-curve" paint-order="fill stroke markers" d=" M 386.8548505705354 161.85485057053543 L 386.8548505705354 161.85485057053543 L 403.90625 157.77746612448306 L 405 157.52596102005583" stroke-linecap="round" stroke-linejoin="round" stroke-miterlimit="10" stroke-width="2" stroke-dasharray=""/></g><g><path fill="none" stroke="#c74440" class="dcg-svg-curve" paint-order="fill stroke markers" d=" M 405 241.63181682927208 L 405 241.63181682927208 L 393.67383289867604 238.986332898676 L 378.27671102128687 235.15625 L 365.24426096693173 231.63073903306827 L 354.4312099657586 228.38129003424135 L 347.65625 226.1112355236035 L 340.625 223.464796387595 L 333.59375 220.36250106403133 L 332.1387740389124 219.6387740389124 L 325.11269516099344 215.51230483900656 L 323.046875 214.00032164338606 L 321.16529405930487 212.42845594069505 L 319.24954076821666 210.546875 L 317.7721211739886 208.7903788260114 L 316.015625 206.02918139178146 L 314.98011799495566 203.515625 L 314.6278652163976 202.12786521639754 L 314.3827461527519 200 L 314.4959505627649 197.83776519745206 L 315.031693609036 195.500443609036 L 316.11060823563344 192.96875 L 317.423730074891 190.86123007489095 L 319.53125 188.332639178648 L 322.105877579648 185.9375 L 324.6293223338296 184.00432233382952 L 326.5625 182.7062781073544 L 333.76732625857113 178.73267374142884 L 343.3831342343161 174.63313423431606 L 351.1333535820478 171.875 L 356.37899060644065 170.18350939355938 L 368.75 166.56619776895496 L 382.81250000000006 162.86452356695838 L 386.8548505705354 161.85485057053543" stroke-linecap="round" stroke-linejoin="round" stroke-miterlimit="10" stroke-width="2" stroke-dasharray=""/></g><g><path fill="none" stroke="#c74440" class="dcg-svg-curve" paint-order="fill stroke markers" d=" M 235.32339354124412 242.3546435412441 L 235.32339354124412 242.3546435412441 L 236.59030731836162 242.32301000246764 L 242.57915773682737 242.57915773682734 L 249.21875 243.58862434034563 L 253.74837143133806 244.68912856866194 L 256.25 245.43598311811883 L 263.28125 248.05468886370832 L 265.89462546092744 249.21875 L 270.3125 251.4104187427046 L 273.44001410067983 253.12248589932017 L 278.66749675854885 256.25 L 284.375 259.982322553811 L 291.40625 264.91007301969876 L 306.62766312739495 276.18483687260505 L 333.59375000000006 296.2893338730404 L 351.4395600543297 309.2520600543297 L 371.66960717361576 323.6428928263842 L 398.91507785759995 342.66507785759995 L 405 346.86699218227756" stroke-linecap="round" stroke-linejoin="round" stroke-miterlimit="10" stroke-width="2" stroke-dasharray=""/></g><g><path fill="none" stroke="#c74440" class="dcg-svg-curve" paint-order="fill stroke markers" d=" M 317.84377018808834 405 L 317.84377018808834 405 L 297.94460582830357 375.78125 L 280.85015046464434 351.16265046464434 L 268.28570666442306 333.59375 L 257.8095723691274 319.53125 L 249.21875000000003 308.5929813149243 L 242.1875 300.1723211077174 L 240.67748997935558 298.4375 L 234.27403993091394 291.40625 L 227.26030739317076 284.375 L 219.29531900001575 277.34375 L 214.0625 273.32453034736983 L 209.62571061163064 270.3125 L 205.2734375 267.72369167705006 L 200.87890625 265.48903638123966 L 200.44270277495997 265.4817652749599 L 198.9337798329516 269.2462798329516 L 197.93369453526057 272.37880546473946 L 196.76254644014662 277.34375 L 196.235928116141 280.61092811614094 L 195.84157423719023 284.375 L 195.6381828182116 288.7368171817884 L 195.71471385378248 294.1522138537824 L 195.99555056582795 298.4375 L 196.36274817823994 302.07475182176006 L 197.4872655473161 309.9872655473161 L 198.23858620553574 314.26141379446426 L 200 323.0529769082938 L 202.34827581218659 333.59375 L 207.33465827483136 354.6875 L 214.0625 383.1728262435355 L 219.04618439552945 405" stroke-linecap="round" stroke-linejoin="round" stroke-miterlimit="10" stroke-width="2" stroke-dasharray=""/></g><g><path fill="none" stroke="#c74440" class="dcg-svg-curve" paint-order="fill stroke markers" d=" M 138.44577136862466 405 L 138.44577136862466 405 L 141.04729919418978 389.84375 L 143.75 372.8436312092342 L 145.3488797368436 361.71875 L 146.6733170498705 351.1654796251116 L 147.7141942929231 340.625 L 148.17784261369036 333.59375 L 148.28308071734057 331.09558071734057 L 148.37491424985677 326.5625 L 148.19467114376175 319.53125 L 147.98177279021309 316.7317727902131 L 147.265625 311.3395297789535 L 146.64855331384794 308.3673033138479 L 145.30406392933236 303.91468607066764 L 144.48868875432188 301.953125 L 142.98587249342995 299.20162750657005 L 142.45996269806645 298.4375 L 140.234375 296.0485096686319 L 139.30506484619463 295.3865300769027 L 138.44221051411128 294.921875 L 136.09582327966746 294.2989482796674 L 135.20048010408928 294.27942097327116 L 132.95877823181695 294.6775282318169 L 131.4453125 295.25541223066404 L 129.3225930180343 296.40600726352574 L 126.4773418071762 298.4375 L 122.65625000000001 301.8048283624036 L 119.03790845034077 305.46875 L 112.80809297978962 312.5 L 107.06414558022276 319.53125 L 96.29558936518713 333.59375 L 86.03187437595986 347.65625 L 72.06698193588461 367.37948193588466 L 54.798285951453494 392.29828595145347 L 46.0985290968125 405" stroke-linecap="round" stroke-linejoin="round" stroke-miterlimit="10" stroke-width="2" stroke-dasharray=""/></g><g><path fill="none" stroke="#c74440" class="dcg-svg-curve" paint-order="fill stroke markers" d=" M -5 328.2075404979055 L -5 328.2075404979055 L 12.417301541655434 317.27019845834457 L 31.76996362010115 305.46875 L 45.312500000000014 297.5201628978568 L 56.21661748268819 291.40625 L 66.40625000000001 286.0293252879266 L 73.43750000000001 282.58032212182815 L 81.92542425051808 278.80042425051806 L 87.5 276.60806717448617 L 94.53125 274.25475992099683 L 101.5625 272.4569786250803 L 103.35093789476119 272.10093789476116 L 108.59375 271.3168472057055 L 116.2246708495 270.9121708495 L 122.65625 271.23345815944384 L 134.7776584126091 272.2535915873909 L 138.33100462391832 271.92475462391826 L 140.234375 271.5233918498439 L 144.03031404975027 270.3125 L 157.8125 264.4988252209153 L 163.98739209293558 262.4248920929356 L 166.31454371258405 261.81045628741595 L 171.875 260.75415257195414 L 175.98973041258182 260.3647304125818 L 178.90625 260.29732165207616 L 181.78430530471402 260.40319469528595 L 185.9375 260.8608009054556 L 189.453125 261.5309500053079 L 193.5965715426049 262.6534284573951 L 196.484375 263.64775255678956 L 200.31068954805215 265.22928174288296 L 200.65085475286472 265.0390625 L 201.5149222984313 263.28125 L 203.6153954652936 259.6658545347064 L 207.03125 255.13377746584695 L 209.95548129982024 252.1429812998202 L 214.0625 248.90640398288963 L 218.3145819615487 246.43958196154867 L 221.09375 245.2107841439025 L 228.125 243.1718818137956 L 231.640625 242.63091301986708 L 235.32339354124412 242.3546435412441" stroke-linecap="round" stroke-linejoin="round" stroke-miterlimit="10" stroke-width="2" stroke-dasharray=""/></g></g><g id="sketch-db39f602"><title>Expression 6</title><path fill="#2d70b3" stroke="none" paint-order="stroke fill markers" d="" fill-opacity="0.4"/><g><path fill="none" stroke="#2d70b3" class="dcg-svg-curve" paint-order="fill stroke markers" d=" M 17.20504001692919 31.232459983070783 L 17.20504001692919 31.232459983070783 L 32.08464197284937 45.31249999999997 L 47.30138744527956 59.37499999999997 L 61.1383931633448 71.67410683665523 L 68.74840559344959 78.12659440655041 L 76.5415255559866 84.3959744440134 L 84.6139072129976 90.3860927870024 L 90.8499086293128 94.53124999999999 L 94.53125 96.72306786463162 L 99.13479908015843 99.13479908015843 L 102.50150151872683 100.62349848127316 L 105.078125 101.57876023970131 L 108.59375 102.58171590326891 L 109.88161525476119 102.85036525476116 L 113.90506960804342 103.28243039195657 L 115.62500000000001 103.2449095961924 L 117.13963486644457 103.07713486644452 L 119.140625 102.62339221111944 L 122.28018560947334 101.18643560947332 L 122.65625 100.93295670654483 L 124.4140625 99.39988812663489 L 125.76205487523427 97.63705487523423 L 126.4959892754868 96.28906249999997 L 127.18651402926349 94.53124999999999 L 127.69807189635976 92.54182189635975 L 127.8912809906304 91.39308038192773 L 128.1000631259027 89.08743687409729 L 128.0796425507561 85.89214255075608 L 127.4630419350888 80.46874999999999 L 126.67751928877547 76.4474807112245 L 125.95883698783175 73.43749999999999 L 123.65802308138619 65.40447691861382 L 121.68172794588472 59.37499999999997 L 119.2054586974854 52.34374999999997 L 113.92099521117073 38.28124999999997 L 108.26576705878318 23.890767058783126 L 96.59054416867608 -5" stroke-linecap="round" stroke-linejoin="round" stroke-miterlimit="10" stroke-width="2" stroke-dasharray=""/></g><g><path fill="none" stroke="#2d70b3" class="dcg-svg-curve" paint-order="fill stroke markers" d=" M 178.2086742656649 -5 L 178.2086742656649 -5 L 177.68909703403983 11.373402965960167 L 176.86378027237228 31.24999999999997 L 175.74739629962093 52.34374999999994 L 174.38136073943846 75.94386073943845 L 174.07120412496613 85.30379587503388 L 174.07641425260093 89.70141425260088 L 174.2687416940832 94.53124999999999 L 174.6627847226306 98.77471527736942 L 175.06991849895053 101.56249999999999 L 175.91882911204348 105.60632911204347 L 177.32466855635172 110.17533144364826 L 178.90625 113.9229916276581 L 179.7729343441983 115.62499999999999 L 182.11425356999308 119.44824643000695 L 185.9375 124.16587967122835 L 188.7579709199357 126.86702908006428 L 190.24888407869645 128.0959818426071 L 193.93352328072024 130.6522732807202 L 196.484375 132.07993033181285 L 199.67503817050266 133.52808682949734 L 200.56224346728104 133.765368467281 L 202.1182052061728 129.6875 L 205.00321872486506 122.65624999999997 L 208.08352237302756 115.62499999999996 L 214.0625 102.74507898034646 L 242.1875 43.36152963005324 L 252.17518583095926 21.262314169040707 L 263.29042981313785 -3.91542981313782 L 263.7633680152294 -5" stroke-linecap="round" stroke-linejoin="round" stroke-miterlimit="10" stroke-width="2" stroke-dasharray=""/></g><g><path fill="none" stroke="#2d70b3" class="dcg-svg-curve" paint-order="fill stroke markers" d=" M 386.81973407741714 -5 L 386.81973407741714 -5 L 298.4375 83.92717536405611 L 287.429596779566 94.53124999999999 L 277.34375 103.81745711014524 L 270.3125 109.91772478459998 L 263.2492692114055 115.62499999999999 L 256.25 120.76413292863232 L 250.86921473819075 124.30671473819072 L 249.21875 125.31578848749704 L 241.1405804568974 129.6875 L 235.15625 132.27846134501243 L 231.88383884238903 133.44633884238903 L 228.125 134.56017693331646 L 220.41003569758135 136.03503569758132 L 219.85069535409826 136.09722267704913 L 213.69424816664184 136.3504981666418 L 207.9350831509812 135.8149168490188 L 205.00919890015112 135.22517609984885 L 202.23723211746417 134.44919093152512 L 200.56802323224102 133.86995603379904 L 199.1845746163001 137.5341753836999 L 197.10214271948186 143.75 L 195.018422404737 150.78125 L 194.58152449228902 152.394024492289 L 192.96875 158.92023158818574 L 191.4229513653859 166.3895486346141 L 190.48745532152822 171.875 L 189.53260613005025 178.90625 L 188.8521866883454 185.9375 L 188.448589347631 192.96875 L 188.166992917363 199.59277416736296 L 178.90625 199.58965966310242 L 114.26121164669532 199.58605825875037 L 114.15240180311397 200.24678211501762 L 114.1069300196649 201.5180699803351 L 113.74336309279707 205.14961309279704 L 113.4151479615447 207.03125 L 112.43911814599421 210.8766181459942 L 111.30917181686644 214.0625 L 107.98811123218672 220.62821446153896 L 105.76887513567429 223.9186248643257 L 101.5625 228.93641685711748 L 98.046875 232.35676926138538 L 93.84904021355156 235.83845978644842 L 89.92152371630652 238.671875 L 84.35895906492031 242.1875 L 77.31450938560302 246.06450938560295 L 70.91343443011033 249.21874999999997 L 62.67167012833053 252.95332987166944 L 52.343750000000014 257.32429180993586 L 37.57098990249193 263.28125 L -5 280.01108526015594" stroke-linecap="round" stroke-linejoin="round" stroke-miterlimit="10" stroke-width="2" stroke-dasharray=""/></g><g><path fill="none" stroke="#2d70b3" class="dcg-svg-curve" paint-order="fill stroke markers" d=" M -5 199.58635050752287 L -5 199.58635050752287 L 114.15597571375534 199.51994021468136 L 114.07384285336688 197.10299181439007 L 113.83682132032492 194.6961963203249 L 113.386925337945 192.00822567588997 L 112.6280385282081 188.9344614717919 L 111.62893218849067 185.9375 L 110.11416188895717 182.421875 L 107.567471291163 177.87997129116297 L 105.078125 174.34447352974803 L 101.5625 170.24284345601305 L 98.046875 166.8224434657161 L 94.53125 163.87083804286704 L 90.79820934630756 161.11070934630754 L 85.72768693274381 157.8125 L 77.85501388163702 153.39498611836302 L 72.63272517131745 150.78125 L 66.40625000000001 147.8825493653921 L 56.893924625376926 143.75 L 45.31250000000004 138.99174818338628 L 18.4877774763022 128.38722252369777 L -5 119.16590677873752" stroke-linecap="round" stroke-linejoin="round" stroke-miterlimit="10" stroke-width="2" stroke-dasharray=""/></g><g><path fill="none" stroke="#2d70b3" class="dcg-svg-curve" paint-order="fill stroke markers" d=" M -5 9.820599721029375 L -5 9.820599721029375 L 17.20504001692919 31.232459983070783" stroke-linecap="round" stroke-linejoin="round" stroke-miterlimit="10" stroke-width="2" stroke-dasharray=""/></g><g><path fill="none" stroke="#2d70b3" class="dcg-svg-curve" paint-order="fill stroke markers" d=" M 188.98342009048912 199.59079865951088 L 188.98342009048912 199.59079865951088 L 191.2109375 199.58965982377964 L 290.9378632961734 199.53161329617342 L 290.93606229637123 199.5134672961353 L 291.0583008879461 196.484375 L 291.40625 193.61006140829093 L 291.53737285093143 192.83762714906854 L 292.30354879673916 189.453125 L 293.4336784740178 185.93749999999997 L 294.91633429546675 182.41633429546673 L 296.7550537316828 178.90625 L 298.4375 176.18385304017218 L 301.5741312965323 171.875 L 306.7251476104422 166.1001476104422 L 307.9934460099633 164.84375 L 314.09655720205353 159.40905720205353 L 319.53125 155.18366026432966 L 325.81597060459364 150.78125 L 330.53619751345116 147.72369751345116 L 339.3187401328224 142.44374013282237 L 348.3503317350867 137.41283173508663 L 357.5685857765338 132.56858577653372 L 368.75 126.97044628766932 L 385.948080119349 118.76058011934903 L 405 110.0313597934474" stroke-linecap="round" stroke-linejoin="round" stroke-miterlimit="10" stroke-width="2" stroke-dasharray=""/></g><g><path fill="none" stroke="#2d70b3" class="dcg-svg-curve" paint-order="fill stroke markers" d=" M 405 199.58965987277045 L 405 199.58965987277045 L 291.40625 199.58966309442047" stroke-linecap="round" stroke-linejoin="round" stroke-miterlimit="10" stroke-width="2" stroke-dasharray=""/></g><g><path fill="none" stroke="#2d70b3" class="dcg-svg-curve" paint-order="fill stroke markers" d=" M 290.93235744789524 200 L 290.93235744789524 200 L 291.06944284466954 202.82727028217877 L 291.40625 205.56902750083353 L 291.73522660062304 207.36022660062304 L 292.5365802145126 210.546875 L 293.74745631351766 214.0625 L 295.18253345273206 217.31746654726797 L 297.2382986665972 221.09375 L 298.4375 222.9954358170421 L 302.23909227610295 228.12499999999997 L 307.1344971590114 233.4905028409886 L 308.8507235820107 235.15625 L 314.54780356198853 240.13969643801144 L 319.53125 243.99559847502434 L 326.5625 248.89408392809167 L 331.0404987315916 251.77200126840842 L 338.4797235267596 256.25 L 343.4576097106921 259.08260971069205 L 354.6875 265.12254984680203 L 367.4780648648073 271.58443513519273 L 379.41099874712575 277.34375 L 396.875 285.4622198839018 L 405 289.13370171840154" stroke-linecap="round" stroke-linejoin="round" stroke-miterlimit="10" stroke-width="2" stroke-dasharray=""/></g><g><path fill="none" stroke="#2d70b3" class="dcg-svg-curve" paint-order="fill stroke markers" d=" M 387.6340619595967 405 L 387.6340619595967 405 L 298.4375 315.2522109508698 L 288.29663105560684 305.46875 L 277.34375 295.36195108846147 L 270.3125 289.2615203283388 L 263.28125 283.57896482525155 L 256.25 278.4151816512451 L 251.37388511357688 275.1886148864231 L 249.21875 273.86351170345085 L 241.57887250383652 269.70387250383646 L 237.58551434898885 267.8832356510112 L 232.49886279525654 265.9386372047435 L 228.125 264.6191655691946 L 220.95216380476563 263.2104569023828 L 213.61214303357283 262.8308930335728 L 208.46682701735685 263.28125 L 206.73290667757112 263.5795933224289 L 202.63671875 264.6046620909962 L 200.87890625 265.1954583136968 L 200.59178912325712 265.5185015166552 L 201.7578125 268.57146427820584 L 204.1247730121475 274.43727301214744 L 208.45342190771305 284.375 L 214.70834465304424 297.79165534695574 L 238.42929371533003 347.65625 L 249.21875 371.3174413066063 L 260.565771596352 396.875 L 264.1154418913405 405" stroke-linecap="round" stroke-linejoin="round" stroke-miterlimit="10" stroke-width="2" stroke-dasharray=""/></g><g><path fill="none" stroke="#2d70b3" class="dcg-svg-curve" paint-order="fill stroke markers" d=" M 178.2330966357912 405 L 178.2330966357912 405 L 177.7199685351946 388.6574685351946 L 176.9021065909919 368.75 L 175.79518726358913 347.65625 L 174.22138419883655 319.53125 L 174.05887767164515 312.5 L 174.06484555109836 310.31015444890164 L 174.21907092482553 305.46875 L 174.57650741073684 301.1390074107368 L 174.93629284909173 298.4375 L 175.65887387434628 294.65362612565366 L 177.10802844030573 289.6080284403057 L 179.34261854690078 284.375 L 181.78184940489123 280.2193494048912 L 183.90014938332894 277.34375 L 185.9375 275.01345425155415 L 188.32137531478776 272.6963753147877 L 191.26711294908134 270.3125 L 194.4116785899634 268.2398035899634 L 197.09067594458577 266.796875 L 200.3520739472875 265.3911364472875 L 200.41423645974237 265.0390625 L 198.53151456094864 259.765625 L 197.364282663172 256.25 L 195.24661408145448 249.21875 L 193.41957255966977 242.1875 L 191.87850809380603 235.15625 L 191.61381943598857 233.80131943598857 L 190.6167613575282 228.125 L 189.6299376357449 221.09375 L 188.91739089059425 214.0625 L 188.48132708521652 207.03125 L 188.32215568187573 199.7479369318757 L 188.57421875 199.58966108276135 L 188.98342009048912 199.59079865951088" stroke-linecap="round" stroke-linejoin="round" stroke-miterlimit="10" stroke-width="2" stroke-dasharray=""/></g><g><path fill="none" stroke="#2d70b3" class="dcg-svg-curve" paint-order="fill stroke markers" d=" M 122.76785065482969 298.32589934517034 L 122.76785065482969 298.32589934517034 L 122.91977419928996 298.4375 L 126.0674332137625 302.0575667862375 L 126.171875 302.2475414288779 L 127.42771536719223 305.46875 L 127.94721578321133 308.2161463336443 L 128.12585102736554 310.9383510273655 L 128.02343771069746 314.16406228930254 L 127.32168548712413 319.53125 L 126.52622941314696 323.40122941314695 L 125.74697841168762 326.5625 L 123.46151216673334 334.3990121667333 L 121.40090006448403 340.625 L 118.90739719544501 347.65625 L 113.60355910800766 361.71875 L 107.72171796819975 376.6532820318003 L 96.25674183013746 405" stroke-linecap="round" stroke-linejoin="round" stroke-miterlimit="10" stroke-width="2" stroke-dasharray=""/></g><g><path fill="none" stroke="#2d70b3" class="dcg-svg-curve" paint-order="fill stroke markers" d=" M -5 389.35866300362306 L -5 389.35866300362306 L 17.1875 367.96356101303775 L 38.50598425601659 347.8809842560166 L 46.3993578996071 340.625 L 60.69859140093496 327.8860914009349 L 68.29994841186846 321.4249484118684 L 76.08024021463834 315.1427402146383 L 84.13257273142241 309.1325727314224 L 89.55276837841691 305.46875 L 94.53125 302.4561790838969 L 101.91961265301535 298.7946126530153 L 102.79753875117413 298.4375 L 108.59375 296.5976072721631 L 113.11539772302172 295.9278977230217 L 115.625 295.93442275126813 L 117.8351419298083 296.2273580701917 L 119.140625 296.5559543139864 L 122.65625 298.24636344491836 L 122.76785065482969 298.32589934517034" stroke-linecap="round" stroke-linejoin="round" stroke-miterlimit="10" stroke-width="2" stroke-dasharray=""/></g></g><g id="sketch-db39f602"><title>Z₁</title><path fill="none" stroke="#000000" class="dcg-svg-point" paint-order="fill stroke markers" d=" M 314.2762067007827 199.48965968739262 L 314.2762067007827 199.6896596873926 L 314.47620670078277 199.6896596873926 L 314.47620670078277 199.48965968739262" stroke-linecap="round" stroke-linejoin="round" stroke-miterlimit="10" stroke-width="9.375" stroke-dasharray=""/></g><g id="sketch-db39f602"><title>Z₂</title><path fill="none" stroke="#000000" class="dcg-svg-point" paint-order="fill stroke markers" d=" M 200.41968642545336 133.75456705743713 L 200.41968642545336 133.95456705743712 L 200.61968642545335 133.95456705743712 L 200.61968642545335 133.75456705743713" stroke-linecap="round" stroke-linejoin="round" stroke-miterlimit="10" stroke-width="9.375" stroke-dasharray=""/></g><g id="sketch-db39f602"><title>Z₃</title><path fill="none" stroke="#000000" class="dcg-svg-point" paint-order="fill stroke markers" d=" M 124.5153395752338 99.07764709015767 L 124.5153395752338 99.27764709015766 L 124.71533957523378 99.27764709015766 L 124.71533957523378 99.07764709015767" stroke-linecap="round" stroke-linejoin="round" stroke-miterlimit="10" stroke-width="9.375" stroke-dasharray=""/></g><g id="sketch-db39f602"><title>Z₄</title><path fill="none" stroke="#000000" class="dcg-svg-point" paint-order="fill stroke markers" d=" M 86.563166150124 199.48965968739262 L 86.563166150124 199.6896596873926 L 86.763166150124 199.6896596873926 L 86.763166150124 199.48965968739262" stroke-linecap="round" stroke-linejoin="round" stroke-miterlimit="10" stroke-width="9.375" stroke-dasharray=""/></g><g id="sketch-db39f602"><title>Z₅</title><path fill="none" stroke="#000000" class="dcg-svg-point" paint-order="fill stroke markers" d=" M 124.5153395752338 299.9016722846275 L 124.5153395752338 300.10167228462757 L 124.71533957523378 300.10167228462757 L 124.71533957523378 299.9016722846275" stroke-linecap="round" stroke-linejoin="round" stroke-miterlimit="10" stroke-width="9.375" stroke-dasharray=""/></g><g id="sketch-db39f602"><title>Z₆</title><path fill="none" stroke="#000000" class="dcg-svg-point" paint-order="fill stroke markers" d=" M 200.41968642545336 265.2247523173481 L 200.41968642545336 265.4247523173481 L 200.61968642545335 265.4247523173481 L 200.61968642545335 265.2247523173481" stroke-linecap="round" stroke-linejoin="round" stroke-miterlimit="10" stroke-width="9.375" stroke-dasharray=""/></g></g><g id="labels-db39f602"><g transform="rotate(0,0,0) translate(307,173)"><g class="dcg-svg-label"><text fill="none" stroke="#FFF" font-family="arial, sans-serif" font-size="15.4px" font-style="normal" font-weight="400" text-decoration="normal" x="0" y="14.4888" text-anchor="start" stroke-linecap="round" stroke-linejoin="round" stroke-miterlimit="2" stroke-width="3" stroke-dasharray="">Z₁</text><text fill="rgb(0, 0, 0)" stroke="none" font-family="arial, sans-serif" font-size="15.4px" font-style="normal" font-weight="400" text-decoration="normal" x="0" y="14.4888" text-anchor="start">Z₁</text></g></g><g transform="rotate(0,0,0) translate(181,140)"><g class="dcg-svg-label"><text fill="none" stroke="#FFF" font-family="arial, sans-serif" font-size="15.4px" font-style="normal" font-weight="400" text-decoration="normal" x="0" y="14.4888" text-anchor="start" stroke-linecap="round" stroke-linejoin="round" stroke-miterlimit="2" stroke-width="3" stroke-dasharray="">Z₂</text><text fill="rgb(0, 0, 0)" stroke="none" font-family="arial, sans-serif" font-size="15.4px" font-style="normal" font-weight="400" text-decoration="normal" x="0" y="14.4888" text-anchor="start">Z₂</text></g></g><g transform="rotate(0,0,0) translate(118,107)"><g class="dcg-svg-label"><text fill="none" stroke="#FFF" font-family="arial, sans-serif" font-size="15.4px" font-style="normal" font-weight="400" text-decoration="normal" x="0" y="14.4888" text-anchor="start" stroke-linecap="round" stroke-linejoin="round" stroke-miterlimit="2" stroke-width="3" stroke-dasharray="">Z₃</text><text fill="rgb(0, 0, 0)" stroke="none" font-family="arial, sans-serif" font-size="15.4px" font-style="normal" font-weight="400" text-decoration="normal" x="0" y="14.4888" text-anchor="start">Z₃</text></g></g><g transform="rotate(0,0,0) translate(80,208)"><g class="dcg-svg-label"><text fill="none" stroke="#FFF" font-family="arial, sans-serif" font-size="15.4px" font-style="normal" font-weight="400" text-decoration="normal" x="0" y="14.4888" text-anchor="start" stroke-linecap="round" stroke-linejoin="round" stroke-miterlimit="2" stroke-width="3" stroke-dasharray="">Z₄</text><text fill="rgb(0, 0, 0)" stroke="none" font-family="arial, sans-serif" font-size="15.4px" font-style="normal" font-weight="400" text-decoration="normal" x="0" y="14.4888" text-anchor="start">Z₄</text></g></g><g transform="rotate(0,0,0) translate(105,275)"><g class="dcg-svg-label"><text fill="none" stroke="#FFF" font-family="arial, sans-serif" font-size="15.4px" font-style="normal" font-weight="400" text-decoration="normal" x="0" y="14.4888" text-anchor="start" stroke-linecap="round" stroke-linejoin="round" stroke-miterlimit="2" stroke-width="3" stroke-dasharray="">Z₅</text><text fill="rgb(0, 0, 0)" stroke="none" font-family="arial, sans-serif" font-size="15.4px" font-style="normal" font-weight="400" text-decoration="normal" x="0" y="14.4888" text-anchor="start">Z₅</text></g></g><g transform="rotate(0,0,0) translate(181,240)"><g class="dcg-svg-label"><text fill="none" stroke="#FFF" font-family="arial, sans-serif" font-size="15.4px" font-style="normal" font-weight="400" text-decoration="normal" x="0" y="14.4888" text-anchor="start" stroke-linecap="round" stroke-linejoin="round" stroke-miterlimit="2" stroke-width="3" stroke-dasharray="">Z₆</text><text fill="rgb(0, 0, 0)" stroke="none" font-family="arial, sans-serif" font-size="15.4px" font-style="normal" font-weight="400" text-decoration="normal" x="0" y="14.4888" text-anchor="start">Z₆</text></g></g></g><g id="labels-db39f602"/></g></svg>