<svg version="1.1" xmlns="http://www.w3.org/2000/svg" xmlns:xlink="http://www.w3.org/1999/xlink" width="2000" height="2000"><defs/><g transform="scale(2,2)"><g id="background-b25c8cab"><rect fill="white" stroke="none" x="0" y="0" width="1000" height="1000" class="dcg-svg-background"/></g><g id="graphpaper-b25c8cab"><g id="axis-b25c8cab"><g id="yaxis-b25c8cab"><title>Im</title><g><path fill="none" stroke="rgb(0,0,0)" class="dcg-svg-axis-line" paint-order="fill stroke markers" d=" M 418 0 L 418 1000" stroke-opacity="0.9" stroke-miterlimit="10" stroke-width="2" stroke-dasharray=""/></g></g><g id="xaxis-b25c8cab"><title>Re</title><g><path fill="none" stroke="rgb(0,0,0)" class="dcg-svg-axis-line" paint-order="fill stroke markers" d=" M 0 498 L 1000 498" stroke-opacity="0.9" stroke-miterlimit="10" stroke-width="2" stroke-dasharray=""/></g></g><g><g class="dcg-svg-axis-value"><text fill="none" stroke="#ffffff" font-family="Arial" font-size="20px" font-style="normal" font-weight="normal" text-decoration="normal" x="407.7377750171951" y="518.5655409360647" text-anchor="middle" stroke-miterlimit="2" stroke-width="3" stroke-dasharray="">0</text><text fill="#000000" stroke="none" font-family="Arial" font-size="20px" font-style="normal" font-weight="normal" text-decoration="normal" x="407.7377750171951" y="518.5655409360647" text-anchor="middle">0</text></g><g><path fill="none" stroke="rgb(0,0,0)" class="dcg-svg-tickmark" paint-order="fill stroke markers" d=" M 39 494 L 39 502 M 134 494 L 134 502 M 229 494 L 229 502 M 323 494 L 323 502 M 513 494 L 513 502 M 608 494 L 608 502 M 703 494 L 703 502 M 798 494 L 798 502 M 893 494 L 893 502 M 988 494 L 988 502 M 414 973 L 422 973 M 414 878 L 422 878 M 414 783 L 422 783 M 414 688 L 422 688 M 414 593 L 422 593 M 414 403 L 422 403 M 414 308 L 422 308 M 414 213 L 422 213 M 414 119 L 422 119 M 414 24 L 422 24" stroke-opacity="0.9" stroke-miterlimit="2" stroke-width="2" stroke-dasharray=""/></g><g class="dcg-svg-axis-value"><text fill="none" stroke="#ffffff" font-family="Arial" font-size="20px" font-style="normal" font-weight="normal" text-decoration="normal" x="35.44748607859714" y="518.5655409360647" text-anchor="middle" stroke-miterlimit="2" stroke-width="3" stroke-dasharray="">-2</text><text fill="#000000" stroke="none" font-family="Arial" font-size="20px" font-style="normal" font-weight="normal" text-decoration="normal" x="35.44748607859714" y="518.5655409360647" text-anchor="middle">-2</text></g><g class="dcg-svg-axis-value"><text fill="none" stroke="#ffffff" font-family="Arial" font-size="20px" font-style="normal" font-weight="normal" text-decoration="normal" x="130.32791964137164" y="518.5655409360647" text-anchor="middle" stroke-miterlimit="2" stroke-width="3" stroke-dasharray="">-1.5</text><text fill="#000000" stroke="none" font-family="Arial" font-size="20px" font-style="normal" font-weight="normal" text-decoration="normal" x="130.32791964137164" y="518.5655409360647" text-anchor="middle">-1.5</text></g><g class="dcg-svg-axis-value"><text fill="none" stroke="#ffffff" font-family="Arial" font-size="20px" font-style="normal" font-weight="normal" text-decoration="normal" x="225.2083532041461" y="518.5655409360647" text-anchor="middle" stroke-miterlimit="2" stroke-width="3" stroke-dasharray="">-1</text><text fill="#000000" stroke="none" font-family="Arial" font-size="20px" font-style="normal" font-weight="normal" text-decoration="normal" x="225.2083532041461" y="518.5655409360647" text-anchor="middle">-1</text></g><g class="dcg-svg-axis-value"><text fill="none" stroke="#ffffff" font-family="Arial" font-size="20px" font-style="normal" font-weight="normal" text-decoration="normal" x="320.0887867669206" y="518.5655409360647" text-anchor="middle" stroke-miterlimit="2" stroke-width="3" stroke-dasharray="">-0.5</text><text fill="#000000" stroke="none" font-family="Arial" font-size="20px" font-style="normal" font-weight="normal" text-decoration="normal" x="320.0887867669206" y="518.5655409360647" text-anchor="middle">-0.5</text></g><g class="dcg-svg-axis-value"><text fill="none" stroke="#ffffff" font-family="Arial" font-size="20px" font-style="normal" font-weight="normal" text-decoration="normal" x="513.1797320174695" y="518.5655409360647" text-anchor="middle" stroke-miterlimit="2" stroke-width="3" stroke-dasharray="">0.5</text><text fill="#000000" stroke="none" font-family="Arial" font-size="20px" font-style="normal" font-weight="normal" text-decoration="normal" x="513.1797320174695" y="518.5655409360647" text-anchor="middle">0.5</text></g><g class="dcg-svg-axis-value"><text fill="none" stroke="#ffffff" font-family="Arial" font-size="20px" font-style="normal" font-weight="normal" text-decoration="normal" x="608.0601655802441" y="518.5655409360647" text-anchor="middle" stroke-miterlimit="2" stroke-width="3" stroke-dasharray="">1</text><text fill="#000000" stroke="none" font-family="Arial" font-size="20px" font-style="normal" font-weight="normal" text-decoration="normal" x="608.0601655802441" y="518.5655409360647" text-anchor="middle">1</text></g><g class="dcg-svg-axis-value"><text fill="none" stroke="#ffffff" font-family="Arial" font-size="20px" font-style="normal" font-weight="normal" text-decoration="normal" x="702.9405991430185" y="518.5655409360647" text-anchor="middle" stroke-miterlimit="2" stroke-width="3" stroke-dasharray="">1.5</text><text fill="#000000" stroke="none" font-family="Arial" font-size="20px" font-style="normal" font-weight="normal" text-decoration="normal" x="702.9405991430185" y="518.5655409360647" text-anchor="middle">1.5</text></g><g class="dcg-svg-axis-value"><text fill="none" stroke="#ffffff" font-family="Arial" font-size="20px" font-style="normal" font-weight="normal" text-decoration="normal" x="797.821032705793" y="518.5655409360647" text-anchor="middle" stroke-miterlimit="2" stroke-width="3" stroke-dasharray="">2</text><text fill="#000000" stroke="none" font-family="Arial" font-size="20px" font-style="normal" font-weight="normal" text-decoration="normal" x="797.821032705793" y="518.5655409360647" text-anchor="middle">2</text></g><g class="dcg-svg-axis-value"><text fill="none" stroke="#ffffff" font-family="Arial" font-size="20px" font-style="normal" font-weight="normal" text-decoration="normal" x="892.7014662685675" y="518.5655409360647" text-anchor="middle" stroke-miterlimit="2" stroke-width="3" stroke-dasharray="">2.5</text><text fill="#000000" stroke="none" font-family="Arial" font-size="20px" font-style="normal" font-weight="normal" text-decoration="normal" x="892.7014662685675" y="518.5655409360647" text-anchor="middle">2.5</text></g><g class="dcg-svg-axis-value"><text fill="none" stroke="#ffffff" font-family="Arial" font-size="20px" font-style="normal" font-weight="normal" text-decoration="normal" x="987.581899831342" y="518.5655409360647" text-anchor="middle" stroke-miterlimit="2" stroke-width="3" stroke-dasharray="">3</text><text fill="#000000" stroke="none" font-family="Arial" font-size="20px" font-style="normal" font-weight="normal" text-decoration="normal" x="987.581899831342" y="518.5655409360647" text-anchor="middle">3</text></g><g class="dcg-svg-axis-value"><text fill="none" stroke="#ffffff" font-family="Arial" font-size="20px" font-style="normal" font-weight="normal" text-decoration="normal" x="396.0678531421951" y="977.9677087499372" text-anchor="middle" stroke-miterlimit="2" stroke-width="3" stroke-dasharray="">-2.5</text><text fill="#000000" stroke="none" font-family="Arial" font-size="20px" font-style="normal" font-weight="normal" text-decoration="normal" x="396.0678531421951" y="977.9677087499372" text-anchor="middle">-2.5</text></g><g class="dcg-svg-axis-value"><text fill="none" stroke="#ffffff" font-family="Arial" font-size="20px" font-style="normal" font-weight="normal" text-decoration="normal" x="404.4076968921951" y="883.0872751871627" text-anchor="middle" stroke-miterlimit="2" stroke-width="3" stroke-dasharray="">-2</text><text fill="#000000" stroke="none" font-family="Arial" font-size="20px" font-style="normal" font-weight="normal" text-decoration="normal" x="404.4076968921951" y="883.0872751871627" text-anchor="middle">-2</text></g><g class="dcg-svg-axis-value"><text fill="none" stroke="#ffffff" font-family="Arial" font-size="20px" font-style="normal" font-weight="normal" text-decoration="normal" x="396.0678531421951" y="788.2068416243882" text-anchor="middle" stroke-miterlimit="2" stroke-width="3" stroke-dasharray="">-1.5</text><text fill="#000000" stroke="none" font-family="Arial" font-size="20px" font-style="normal" font-weight="normal" text-decoration="normal" x="396.0678531421951" y="788.2068416243882" text-anchor="middle">-1.5</text></g><g class="dcg-svg-axis-value"><text fill="none" stroke="#ffffff" font-family="Arial" font-size="20px" font-style="normal" font-weight="normal" text-decoration="normal" x="404.4076968921951" y="693.3264080616137" text-anchor="middle" stroke-miterlimit="2" stroke-width="3" stroke-dasharray="">-1</text><text fill="#000000" stroke="none" font-family="Arial" font-size="20px" font-style="normal" font-weight="normal" text-decoration="normal" x="404.4076968921951" y="693.3264080616137" text-anchor="middle">-1</text></g><g class="dcg-svg-axis-value"><text fill="none" stroke="#ffffff" font-family="Arial" font-size="20px" font-style="normal" font-weight="normal" text-decoration="normal" x="396.0678531421951" y="598.4459744988392" text-anchor="middle" stroke-miterlimit="2" stroke-width="3" stroke-dasharray="">-0.5</text><text fill="#000000" stroke="none" font-family="Arial" font-size="20px" font-style="normal" font-weight="normal" text-decoration="normal" x="396.0678531421951" y="598.4459744988392" text-anchor="middle">-0.5</text></g><g class="dcg-svg-axis-value"><text fill="none" stroke="#ffffff" font-family="Arial" font-size="20px" font-style="normal" font-weight="normal" text-decoration="normal" x="399.3979312671951" y="408.6851073732902" text-anchor="middle" stroke-miterlimit="2" stroke-width="3" stroke-dasharray="">0.5</text><text fill="#000000" stroke="none" font-family="Arial" font-size="20px" font-style="normal" font-weight="normal" text-decoration="normal" x="399.3979312671951" y="408.6851073732902" text-anchor="middle">0.5</text></g><g class="dcg-svg-axis-value"><text fill="none" stroke="#ffffff" font-family="Arial" font-size="20px" font-style="normal" font-weight="normal" text-decoration="normal" x="407.7377750171951" y="313.8046738105157" text-anchor="middle" stroke-miterlimit="2" stroke-width="3" stroke-dasharray="">1</text><text fill="#000000" stroke="none" font-family="Arial" font-size="20px" font-style="normal" font-weight="normal" text-decoration="normal" x="407.7377750171951" y="313.8046738105157" text-anchor="middle">1</text></g><g class="dcg-svg-axis-value"><text fill="none" stroke="#ffffff" font-family="Arial" font-size="20px" font-style="normal" font-weight="normal" text-decoration="normal" x="399.3979312671951" y="218.92424024774124" text-anchor="middle" stroke-miterlimit="2" stroke-width="3" stroke-dasharray="">1.5</text><text fill="#000000" stroke="none" font-family="Arial" font-size="20px" font-style="normal" font-weight="normal" text-decoration="normal" x="399.3979312671951" y="218.92424024774124" text-anchor="middle">1.5</text></g><g class="dcg-svg-axis-value"><text fill="none" stroke="#ffffff" font-family="Arial" font-size="20px" font-style="normal" font-weight="normal" text-decoration="normal" x="407.7377750171951" y="124.04380668496674" text-anchor="middle" stroke-miterlimit="2" stroke-width="3" stroke-dasharray="">2</text><text fill="#000000" stroke="none" font-family="Arial" font-size="20px" font-style="normal" font-weight="normal" text-decoration="normal" x="407.7377750171951" y="124.04380668496674" text-anchor="middle">2</text></g><g class="dcg-svg-axis-value"><text fill="none" stroke="#ffffff" font-family="Arial" font-size="20px" font-style="normal" font-weight="normal" text-decoration="normal" x="399.3979312671951" y="29.163373122192244" text-anchor="middle" stroke-miterlimit="2" stroke-width="3" stroke-dasharray="">2.5</text><text fill="#000000" stroke="none" font-family="Arial" font-size="20px" font-style="normal" font-weight="normal" text-decoration="normal" x="399.3979312671951" y="29.163373122192244" text-anchor="middle">2.5</text></g></g><g class="dcg-svg-axis-label"><text fill="none" stroke="#ffffff" font-family="Times" font-size="28px" font-style="italic" font-weight="normal" text-decoration="normal" x="955.46875" y="543.1255409360647" text-anchor="start" stroke-miterlimit="2" stroke-width="3" stroke-dasharray="">Re</text><text fill="#000000" stroke="none" font-family="Times" font-size="28px" font-style="italic" font-weight="normal" text-decoration="normal" x="955.46875" y="543.1255409360647" text-anchor="start">Re</text></g><g class="dcg-svg-axis-label" transform="translate(344.2914859546951,35)"><text fill="none" stroke="#ffffff" font-family="Times" font-size="28px" font-style="italic" font-weight="normal" text-decoration="normal" x="0" y="0" text-anchor="start" stroke-miterlimit="2" stroke-width="3" stroke-dasharray="">Im</text><text fill="#000000" stroke="none" font-family="Times" font-size="28px" font-style="italic" font-weight="normal" text-decoration="normal" x="0" y="0" text-anchor="start">Im</text></g></g></g><g id="expressions-b25c8cab"><g id="sketch-b25c8cab"><title>Expression 4</title><path fill="#c74440" stroke="none" paint-order="stroke fill markers" d="" fill-opacity="0.4"/><g><path fill="none" stroke="#c74440" class="dcg-svg-curve" paint-order="fill stroke markers" d=" M 132.25132739074314 -8 L 132.25132739074314 -8 L 179.42181631144638 60.546875 L 218.75000000000003 116.4863879040646 L 246.9234784352417 155.42027156475825 L 271.484375 188.00053278881398 L 289.0625 210.04787498044834 L 296.3645989834529 218.75000000000006 L 312.2414845500229 236.328125 L 327.5435761589299 250.58142384107006 L 333.0078125 254.66152874292507 L 340.4847216409615 258.9568579295193 L 344.1313945923071 260.3607929076929 L 346.19140625 260.9121858785225 L 350.5859375 261.41580323170433 L 352.29340927645086 261.33687659648655 L 356.92373790813906 260.2440504081391 L 359.964501713531 258.7429075351483 L 362.45570397050653 256.98695397050653 L 365.684449739416 253.90625000000003 L 368.1640625 250.8220982455591 L 371.67175585882427 245.11718750000003 L 375.8796039130168 235.25460391301675 L 378.1668630873907 227.5390625 L 380.04469635260307 218.75000000000006 L 381.7669211648953 205.98567116489534 L 382.51059479697324 195.61440520302676 L 382.8176973947476 183.59375 L 382.4583138961601 166.01562499999994 L 381.39459828388124 148.4375 L 379.55474714066844 128.25775285933162 L 375.796950635779 96.8592993642211 L 373.19595973633056 78.125 L 367.8326380577593 42.96875000000006 L 361.65184944768123 5.535650552318771 L 359.3079807054385 -8" stroke-linecap="round" stroke-linejoin="round" stroke-miterlimit="10" stroke-width="5" stroke-dasharray=""/></g><g><path fill="none" stroke="#c74440" class="dcg-svg-curve" paint-order="fill stroke markers" d=" M 557.8097179583788 -8 L 557.8097179583788 -8 L 546.1522274847802 42.96875000000006 L 527.7590778626748 120.67842213732513 L 516.9385912211001 166.65515877889987 L 509.45938045262835 201.171875 L 505.28717268913664 224.0371726891367 L 503.47804061456725 236.32812500000006 L 501.5259765805903 255.43222658059037 L 501.12604390525235 262.6953125 L 500.9450186269123 272.4293936269123 L 501.5897402383205 287.4727597616795 L 501.92242691143394 290.984926911434 L 503.64728178516486 302.99334321483514 L 505.8064969533961 312.8049044646183 L 508.7890625 322.7645517784055 L 512.070014857206 331.28791451061045 L 512.9318032265561 333.2596030234439" stroke-linecap="round" stroke-linejoin="round" stroke-miterlimit="10" stroke-width="5" stroke-dasharray=""/></g><g><path fill="none" stroke="#c74440" class="dcg-svg-curve" paint-order="fill stroke markers" d=" M 512.3895302845373 334.14414408005644 L 512.3895302845373 334.14414408005644 L 504.2584047678582 337.5384702321417 L 500 339.097704014055 L 491.36669333576316 341.796875 L 479.78004334124523 344.4387066587547 L 464.84375 346.1822350298281 L 447.265625 345.859009178306 L 443.58974525841967 345.4727547415803 L 429.6875 343.0491112747792 L 424.609710329387 341.796875 L 412.109375 337.94073358591055 L 406.0115263635303 335.6990263635304 L 389.83061958724954 328.91938041275046 L 376.953125 323.3034837534649 L 364.70164453998865 318.8921054600113 L 359.375 317.5948214042518 L 351.7463579223228 316.5901079223228 L 341.796875 316.6430199933859 L 306.640625 319.74568983663374 L 289.0625 319.34285960410216 L 283.6867928244387 318.8430428244387 L 271.484375 317.072521931005 L 262.8181986670518 315.30680133294834 L 253.90625 313.0845306325434 L 233.54735024999155 306.640625 L 210.39313570697638 297.41936429302365 L 192.14048419271052 289.0625 L 175.1650045396946 280.63375453969456 L 148.4375 266.40054805207734 L 118.01363204502297 249.17386795497697 L 95.02142186243583 235.64642186243577 L 52.114520906422115 209.60422909357794 L 3.447187286606379 179.22843728660632 L -8 171.9693990504201" stroke-linecap="round" stroke-linejoin="round" stroke-miterlimit="10" stroke-width="5" stroke-dasharray=""/></g><g><path fill="none" stroke="#c74440" class="dcg-svg-curve" paint-order="fill stroke markers" d=" M 227.77258426731092 490.9774157326891 L 227.77258426731092 490.9774157326891 L 227.89380838087953 491.56568338087953 L 228.52668601103755 499.01237648896245 L 228.4859820735847 500 L 226.99694474492503 508.246944744925 L 226.45682142066926 509.8713035793308 L 222.72272737574835 517.578125 L 218.75000000000003 523.1209487833768 L 216.78712382619335 525.3857494130966 L 212.89119500565752 529.2974450056576 L 205.73480938322302 535.15625 L 201.17187499999997 538.2944547800201 L 192.0727440489342 543.6352440489343 L 183.59374999999997 547.8330587008625 L 167.16659461492324 554.5773557125185 L 162.49580277719593 556.2541972228041 L 141.14171354667104 563.0167135466711 L 130.859375 565.8847980558836 L 113.1693223883592 570.4244276116408 L 78.125 578.4783015731826 L 33.0438021799273 587.890625 L -8 596.0087856365519" stroke-linecap="round" stroke-linejoin="round" stroke-miterlimit="10" stroke-width="5" stroke-dasharray=""/></g><g><path fill="none" stroke="#c74440" class="dcg-svg-curve" paint-order="fill stroke markers" d=" M -8 400.25729988784786 L -8 400.25729988784786 L 42.96875 410.3781417595117 L 87.88695111150281 419.92554888849725 L 116.35503486356049 426.6137151364395 L 130.859375 430.36632988349817 L 148.4375 435.4041199492704 L 166.01562500000003 441.25244399355574 L 170.39454137311515 442.88670862688485 L 183.59374999999997 448.4180377476264 L 194.49706278211528 453.9404372178847 L 201.17187499999997 457.9564964797927 L 210.50592218680072 464.84375 L 214.80315112275972 468.7905988772403 L 219.15823188597167 473.6328125 L 223.9541582800596 480.80262093988085 L 225.6481507430429 484.31278675695717 L 227.5390625 489.96605173620486 L 227.77258426731092 490.9774157326891" stroke-linecap="round" stroke-linejoin="round" stroke-miterlimit="10" stroke-width="5" stroke-dasharray=""/></g><g><path fill="none" stroke="#c74440" class="dcg-svg-curve" paint-order="fill stroke markers" d=" M 758.3825936574488 55.257593657448865 L 758.3825936574488 55.257593657448865 L 801.4624001721724 -8" stroke-linecap="round" stroke-linejoin="round" stroke-miterlimit="10" stroke-width="5" stroke-dasharray=""/></g><g><path fill="none" stroke="#c74440" class="dcg-svg-curve" paint-order="fill stroke markers" d=" M 1008 141.32861858143283 L 1008 141.32861858143283 L 953.0153817002914 179.5778817002914 L 897.7538948676304 218.75000000000006 L 849.2303037846482 253.90625000000003 L 798.828125 291.3269616577633 L 746.09375 330.6961747285716 L 723.9127618044067 346.3997381955933 L 703.850328125353 359.375 L 685.899668347405 369.4934183474051 L 670.1062881180576 376.953125 L 658.203125 381.59583063649603 L 651.2529910453953 383.90325895460467 L 634.3416878135154 388.2479378135154 L 623.046875 390.1217042191477 L 605.46875 391.30161721100933 L 602.2098969340445 391.2723969340446 L 590.7224921230551 390.4924995935498 L 576.8590273950988 387.98472260490126 L 569.1877256864857 385.7421875 L 561.5234375 382.78966633547526 L 551.8306986177454 377.8568013822547 L 550.3256847334667 376.953125 L 541.4088049755937 370.70057002440626 L 535.15625 365.23303112936424 L 529.5544803674732 359.375 L 522.6972409864051 350.5859375 L 515.380859375 338.3354543025742 L 513.1836008738429 333.7964367427735 L 526.3671875 327.0641674186729 L 535.15625 321.8188064737833 L 542.166388157998 317.20861184200203 L 556.5027281707183 306.640625 L 573.4841341071826 292.2341341071826 L 576.9413361298925 289.0625 L 594.794147316851 271.484375 L 611.0150943897862 253.90625000000003 L 626.124004347432 236.328125 L 640.625 218.52028014261248 L 667.4920683029595 183.59375 L 693.3593749999999 148.23785548481914 L 728.515625 98.47151896594397 L 758.3825936574488 55.257593657448865" stroke-linecap="round" stroke-linejoin="round" stroke-miterlimit="10" stroke-width="5" stroke-dasharray=""/></g><g><path fill="none" stroke="#c74440" class="dcg-svg-curve" paint-order="fill stroke markers" d=" M 968.8326454090986 406.3326454090988 L 968.8326454090986 406.3326454090988 L 1008 396.80346339617404" stroke-linecap="round" stroke-linejoin="round" stroke-miterlimit="10" stroke-width="5" stroke-dasharray=""/></g><g><path fill="none" stroke="#c74440" class="dcg-svg-curve" paint-order="fill stroke markers" d=" M 1008 599.4121090320111 L 1008 599.4121090320111 L 992.1875 595.6824659638471 L 957.03125 586.9018697709852 L 921.875 577.3367259641977 L 898.610625801803 570.3125 L 880.7345852608029 564.3283352608029 L 863.8838261105604 557.9911738894396 L 851.5625 552.7335201756919 L 833.984375 543.7876890182922 L 818.3331654449939 533.2293345550061 L 816.40625 531.6327990989764 L 809.2717021956913 524.7126728043087 L 807.6171875 522.7816205699211 L 802.0091401878695 514.3971098121305 L 799.6048554405851 508.7890625 L 798.828125 506.14753137944274 L 797.8758016365398 500 L 798.828125 490.1026069805455 L 800.8576365002834 484.2429306026465 L 806.9436127835518 474.3063872164484 L 817.7751831945246 463.4748168054754 L 837.313501980834 450.59475198083396 L 851.5625 443.517679197682 L 869.140625 436.1929431231212 L 887.1929427835923 429.6875 L 913.5387503026698 421.3512503026698 L 940.9462368438678 413.6024868438678 L 968.8326454090986 406.3326454090988" stroke-linecap="round" stroke-linejoin="round" stroke-miterlimit="10" stroke-width="5" stroke-dasharray=""/></g><g><path fill="none" stroke="#c74440" class="dcg-svg-curve" paint-order="fill stroke markers" d=" M 623.806982626472 606.228857626472 L 623.806982626472 606.228857626472 L 637.4326428907284 608.6611071092716 L 645.9452555371142 610.7890055371142 L 658.203125 614.6551556148011 L 664.3176770338648 616.9323229661352 L 678.4231777890853 623.046875 L 693.359375 630.7651006472022 L 712.7745604042486 642.4620604042486 L 735.89189527519 658.203125 L 763.6718749999999 678.5411675105101 L 854.349580844689 746.09375 L 904.296875 782.1816794372979 L 957.03125 819.4914293811403 L 1008 854.9292232474968" stroke-linecap="round" stroke-linejoin="round" stroke-miterlimit="10" stroke-width="5" stroke-dasharray=""/></g><g><path fill="none" stroke="#c74440" class="dcg-svg-curve" paint-order="fill stroke markers" d=" M 804.0014369196127 1008 L 804.0014369196127 1008 L 757.3248779939717 939.453125 L 710.9374999999999 872.7054650928125 L 683.2129862361426 833.984375 L 657.052606590118 798.828125 L 640.625 777.7307843917495 L 623.046875 756.2568145809162 L 605.46875 736.1741001060304 L 587.890625 717.7374099280347 L 575.4443735746776 705.8056264253223 L 561.1556157192686 693.359375 L 552.734375 686.6868292388385 L 535.15625 674.4325276628379 L 524.2844763015729 668.0335430992135 L 517.578125 664.5502898402744 L 513.2492685335341 662.5319814664658 L 516.0328439046463 656.6578439046463 L 520.2164350874646 649.4140625 L 522.6649736465845 645.7118486465845 L 526.4318277547611 640.625 L 530.4265588833307 635.8953088833307 L 535.15625 631.0178274996215 L 544.7065645674893 623.046875 L 552.734375 617.8708851050156 L 562.9123079976159 612.8689420023841 L 573.8973736759809 609.0536236759809 L 579.1015625 607.7326265207469 L 588.465307894247 606.043432894247 L 596.6796875 605.2184466398556 L 605.9851113615312 604.9523886384688 L 616.8968214930011 605.46875 L 623.806982626472 606.228857626472" stroke-linecap="round" stroke-linejoin="round" stroke-miterlimit="10" stroke-width="5" stroke-dasharray=""/></g><g><path fill="none" stroke="#c74440" class="dcg-svg-curve" paint-order="fill stroke markers" d=" M 513.1313841545483 662.59765625 L 513.1313841545483 662.59765625 L 510.5299420945196 668.7330670945196 L 508.02546078456294 675.78125 L 505.0451433638915 686.5483046906147 L 503.6288411484838 693.359375 L 502.28052399788686 702.1484375 L 501.1435986471687 715.6812233577416 L 500.99875190771724 729.5143769077173 L 501.7903571616783 744.3033928383217 L 502.14082594473166 748.2345759447317 L 503.99023037077 763.671875 L 506.8290809561384 781.25 L 511.48546615529483 804.9207838447052 L 518.0573320036173 834.4635820036174 L 535.15625 906.5926148559029 L 552.734375 981.7522206294233 L 558.6879490219568 1008" stroke-linecap="round" stroke-linejoin="round" stroke-miterlimit="10" stroke-width="5" stroke-dasharray=""/></g><g><path fill="none" stroke="#c74440" class="dcg-svg-curve" paint-order="fill stroke markers" d=" M 358.6208391071758 1008 L 358.6208391071758 1008 L 364.35799073181005 974.609375 L 370.9274877992035 933.4274877992034 L 375.3541676833478 902.6979176833477 L 377.4192116187074 886.71875 L 379.7223824918872 866.3713675081128 L 381.09662324760814 851.5625 L 382.5327936776488 828.4047063223512 L 382.81297653621675 816.40625 L 382.41632317604245 798.828125 L 381.67880915625955 789.3767566874809 L 380.1428619797594 778.0602630202407 L 379.049979094055 772.4609375 L 376.6624082483104 763.3811582483104 L 373.486383933169 754.8828125 L 371.75494943727193 751.291925562728 L 368.35981630004824 745.7022423999035 L 362.5353716439149 739.3289400170638 L 359.0637249340991 736.9934124340991 L 354.98046875 735.3834407685306 L 350.5859375 734.8357182026473 L 347.9262188464926 735.0258707668895 L 341.796875 736.7296049503441 L 336.79790136510667 739.1997319325533 L 333.0078125 741.5894520766916 L 324.21875 748.4551449585643 L 306.640625 765.8742654961957 L 289.0625 786.2034639547011 L 271.484375 808.2503331524545 L 251.98866208743925 833.984375 L 226.35068185180495 869.140625 L 189.0592849533029 921.875 L 143.69176651567153 987.4417665156714 L 129.62063280189292 1008" stroke-linecap="round" stroke-linejoin="round" stroke-miterlimit="10" stroke-width="5" stroke-dasharray=""/></g><g><path fill="none" stroke="#c74440" class="dcg-svg-curve" paint-order="fill stroke markers" d=" M -8 824.3476201541216 L -8 824.3476201541216 L 32.46095098803096 798.828125 L 78.12500000000006 770.754035573882 L 119.71112448358622 746.09375 L 150.86943100390954 728.515625 L 166.015625 720.3728523184129 L 184.4509507906511 710.9375 L 207.78593820666455 699.9734382066646 L 223.58986820536498 693.359375 L 236.328125 688.628556937433 L 243.42446472486122 686.2630352751388 L 259.7818189500152 681.6568189500151 L 271.484375 679.1784533471209 L 290.1125496043654 676.8312996043654 L 298.52823945078967 676.4579269507897 L 307.3887989380483 676.5294239380484 L 322.3902825569332 677.6097174430668 L 345.79799230849125 679.7823673084912 L 350.5859375 679.7266537892569 L 359.375 678.6563336083128 L 361.73332163362795 678.139571633628 L 369.6268806103799 675.78125 L 376.953125 672.9475968860647 L 394.53125 665.272958342451 L 412.4169838641866 658.203125 L 429.6875 653.2019996455329 L 440.2807627898217 651.2182627898218 L 447.265625 650.3920442125976 L 455.54548473420834 649.9232652657917 L 464.84375 650.068793186733 L 475.3137550582204 651.0950050582204 L 487.2407340846196 653.3842659153804 L 494.17677442461644 655.2644001438459 L 504.39453125 658.7650209409213 L 508.7890625 660.5372970940005 L 513.1313841545483 662.59765625" stroke-linecap="round" stroke-linejoin="round" stroke-miterlimit="10" stroke-width="5" stroke-dasharray=""/></g></g><g id="sketch-b25c8cab"><title>Expression 6</title><path fill="#2d70b3" stroke="none" paint-order="stroke fill markers" d="" fill-opacity="0.4"/><g><path fill="none" stroke="#2d70b3" class="dcg-svg-curve" paint-order="fill stroke markers" d=" M -8 16.561326167211682 L -8 16.561326167211682 L 42.96875 65.83011702626828 L 92.99794969539573 113.28125 L 131.06829162879336 148.4375 L 158.82644009790073 173.20480990209927 L 183.59375000000003 194.33718680349955 L 201.17187499999997 208.53171878562927 L 218.75000000000003 221.79323907935526 L 237.88121326687983 234.7750367331202 L 240.37525138780487 236.328125 L 253.90625 244.06854466459123 L 260.4673111356303 247.34518886436967 L 271.484375 252.00576073699358 L 277.0800770121576 253.90625000000003 L 289.0625 256.69372298099256 L 296.0101201635269 257.3408400134364 L 303.5331850642874 257.0136899357127 L 308.73092655248183 255.99655155248192 L 315.2208041947801 253.48848338956023 L 320.3742153422304 250.06171534223037 L 325.0134074013507 245.11718750000003 L 328.0058883693712 240.11526336937118 L 329.56258280735875 236.328125 L 331.62189824291875 227.5390625 L 331.77804824750956 226.30929824750962 L 332.2049299572391 218.75000000000006 L 331.89126922015225 211.07748077984786 L 331.1911596611698 204.6547058677089 L 326.99202911356286 183.59375000000006 L 324.21875 173.29885065184305 L 318.34045066110355 154.3157993388964 L 310.2011536037013 130.85937499999994 L 299.6836642154309 102.66008578456916 L 283.20916246094316 60.546875 L 259.64528064884087 2.0734693511590763 L 255.53705046740853 -8" stroke-linecap="round" stroke-linejoin="round" stroke-miterlimit="10" stroke-width="5" stroke-dasharray=""/></g><g><path fill="none" stroke="#2d70b3" class="dcg-svg-curve" paint-order="fill stroke markers" d=" M 457.238389264777 -8 L 457.238389264777 -8 L 456.18286340473617 25.390625000000114 L 454.00005452671326 78.125 L 451.4423663573296 126.68263364267045 L 447.32796624205685 201.23421624205685 L 447.265625 203.16462267589645 L 447.02508274549245 218.75 L 447.63555325946146 236.69805325946146 L 449.7023965714337 253.90625000000006 L 452.49947672090116 266.25052327909884 L 454.1053088005289 271.484375 L 458.6135040663165 282.8322540663165 L 462.8838098199707 291.02244018002943 L 467.2213628857156 297.8515625 L 474.0666686624099 306.640625 L 482.421875 315.12398817007704 L 487.36092474577254 319.27970025422746 L 494.2405816495241 324.21875 L 501.6765224300892 328.61328125 L 509.477786601711 332.31908839828895 L 513.1755661411946 333.83915901581895 L 507.62015151096546 349.41702651096546 L 503.33117114438755 362.70617114438755 L 499.19351220152294 376.953125 L 494.74498285265133 394.53125 L 491.0086232109717 412.109375 L 487.9681745891747 429.6875 L 485.04450325857505 452.5108815171501 L 483.3715820844951 473.6328125 L 482.74090889208634 491.52997139208634 L 482.421875 498.12553275957833 L 359.375 498.1255408436672 L 297.8515625 498.12552319416034 L 297.2601585854438 499.4085960854438 L 296.99175076241966 505.34981554967874 L 296.5008637885261 510.1397612114739 L 295.24444971242224 517.578125 L 293.8586465862945 523.3163957973297 L 289.0625 536.9175274206792 L 283.7847503536199 547.45662535362 L 280.2734375 553.2151104597802 L 274.35559806816195 561.5234375 L 266.8913198245797 570.3125 L 260.44541812412615 576.8516681241261 L 253.90625 582.7533597450791 L 241.15219008060913 592.7146900806091 L 236.328125 596.0724462608302 L 215.3502793433893 608.8684706566107 L 196.69750283004723 618.5725028300473 L 172.68814000629447 629.7193900062945 L 147.17976459500744 640.625 L 97.9620181029307 660.4620181029306 L -8 702.0981058803874" stroke-linecap="round" stroke-linejoin="round" stroke-miterlimit="10" stroke-width="5" stroke-dasharray=""/></g><g><path fill="none" stroke="#2d70b3" class="dcg-svg-curve" paint-order="fill stroke markers" d=" M -8 498.10630493773 L -8 498.10630493773 L 297.2701977704374 497.802734375 L 297.069738788019 491.992761211981 L 296.5886125194394 486.81640625 L 295.2697947302498 478.79634803950034 L 294.4128315563694 475.05194565833597 L 291.2687464079797 464.84375 L 289.0625 459.333046756155 L 282.89760379758627 447.265625 L 278.44388235015896 440.30611764984104 L 270.23546273134843 429.6875 L 262.34773860425514 421.2460113957449 L 252.26232446921833 412.109375 L 243.32394469469855 405.1135553053015 L 236.328125 400.17870416419 L 222.06804265531414 391.2132073446859 L 207.22846483817935 383.0097148381793 L 195.21331060846754 376.953125 L 175.28333522047006 367.68541477953 L 148.4375 356.14927192138555 L 113.09920444846546 341.796875 L 23.71229077024509 306.640625 L -8 294.16310464706646" stroke-linecap="round" stroke-linejoin="round" stroke-miterlimit="10" stroke-width="5" stroke-dasharray=""/></g><g><path fill="none" stroke="#2d70b3" class="dcg-svg-curve" paint-order="fill stroke markers" d=" M 484.94005920757047 498.12365295757047 L 484.94005920757047 498.12365295757047 L 607.3431508791422 498.1255991208578 L 737.3046875 498.125535549835 L 739.2140369114559 497.514818161456 L 739.4600126095179 491.2109375 L 740.0938991735514 485.2110866735515 L 741.4210630859715 477.7491880859715 L 741.7626182070555 476.24138008763845 L 745.4054555310655 464.1554555310656 L 746.09375 462.34061352986305 L 753.2834023363414 447.265625 L 757.201354148924 440.795104148924 L 765.1441966715468 429.6875 L 772.5111062001787 420.9486062001787 L 781.25 411.8590503696504 L 790.2437314949407 403.5249814949407 L 801.0078427789363 394.53125 L 816.40625 382.99186886597903 L 833.984375 371.15318716563735 L 853.1304984859107 359.375 L 874.5201133088037 347.17636330880373 L 904.296875 331.3459518573932 L 939.453125 313.7972226897911 L 974.609375 297.05335758611875 L 1008 281.7536151693543" stroke-linecap="round" stroke-linejoin="round" stroke-miterlimit="10" stroke-width="5" stroke-dasharray=""/></g><g><path fill="none" stroke="#2d70b3" class="dcg-svg-curve" paint-order="fill stroke markers" d=" M 1008 498.1254066616207 L 1008 498.1254066616207 L 739.4509448950848 498.12354189808053 L 739.2515944646658 501.00143464133663 L 739.8107526420188 508.7890625 L 740.1818727772013 511.6662477772014 L 742.134087036846 521.537787963154 L 743.4766065868564 526.3671875 L 746.9287983335557 535.9912983335558 L 752.0586100600315 546.7695149399683 L 755.4909151437657 552.734375 L 761.3462662833039 561.5234375 L 768.1819050265249 570.3125 L 774.3009494173292 577.2615505826708 L 784.9105058503374 587.890625 L 798.828125 599.970234475152 L 811.8767880037861 609.9982119962139 L 816.40625 613.2590393498692 L 839.5806483900252 628.6431483900251 L 859.5445330087452 640.625 L 876.9391182513716 650.4046317486284 L 904.296875 664.9050338411201 L 939.453125 682.4537905789465 L 974.609375 699.197681778896 L 1008 714.5416772451464" stroke-linecap="round" stroke-linejoin="round" stroke-miterlimit="10" stroke-width="5" stroke-dasharray=""/></g><g><path fill="none" stroke="#2d70b3" class="dcg-svg-curve" paint-order="fill stroke markers" d=" M 977.3472141379723 1008 L 977.3472141379723 1008 L 763.671875 792.870864856345 L 728.515625 758.9425538929617 L 710.9375 742.6819481082853 L 684.5553556811238 719.711605681124 L 673.717264167537 710.9375 L 654.7824349831756 696.7800650168244 L 640.625 687.3181882700962 L 633.4663368095655 682.9399131904345 L 620.5516989795242 675.78125 L 605.46875 668.700465339554 L 593.9759135609804 664.2884135609804 L 584.7097191931043 661.3840308068956 L 570.3125 658.0931849058834 L 550.7310636846664 656.1998136846664 L 548.7020680474604 656.1869715237302 L 534.1485239964618 657.1953989964618 L 525.8754896351444 658.6948228648556 L 517.578125 660.9433654878254 L 513.228455283615 662.642517783615 L 518.828742484588 677.031867484588 L 528.5158936390618 699.9997313609381 L 535.15625 714.8029279107168 L 554.0346349061756 754.8828125 L 600.1718604522331 851.5625 L 624.4659155841075 904.296875 L 648.1464798040598 957.03125 L 670.5285773961189 1008" stroke-linecap="round" stroke-linejoin="round" stroke-miterlimit="10" stroke-width="5" stroke-dasharray=""/></g><g><path fill="none" stroke="#2d70b3" class="dcg-svg-curve" paint-order="fill stroke markers" d=" M 457.3523906816918 1008 L 457.3523906816918 1008 L 456.31674349071614 974.609375 L 454.1751322477117 921.875 L 451.6710248465648 873.5460248465648 L 447.265625 793.0868407330795 L 447.03264199236196 781.25 L 447.3888809732789 763.5486190267211 L 449.09174100317347 746.09375 L 451.7089758304853 732.9589758304853 L 452.9274490001679 728.515625 L 455.8402596541959 719.940990345804 L 461.5344021216829 707.6281521216829 L 464.84375 701.992033474801 L 470.9529322667703 693.359375 L 476.2513572812589 687.188857281259 L 482.421875 681.1268601073847 L 488.9061257789 675.78125 L 497.8589877701464 669.7809595776098 L 504.39453125 666.2469686339176 L 512.8332489194507 662.59765625 L 513.1184805175433 662.5325430175433 L 504.21957512971346 636.4054248702864 L 500 622.208812667732 L 494.29410580436195 599.762855804362 L 490.24286741047405 580.0696325895259 L 488.55885601121946 570.3125 L 485.6716054603385 549.4846445396614 L 484.2441719669062 535.15625 L 482.8647087948221 510.49278428284674 L 482.7103989011729 498.09475235986616" stroke-linecap="round" stroke-linejoin="round" stroke-miterlimit="10" stroke-width="5" stroke-dasharray=""/></g><g><path fill="none" stroke="#2d70b3" class="dcg-svg-curve" paint-order="fill stroke markers" d=" M 484.619140625 498.1255421243427 L 484.619140625 498.1255421243427 L 484.94005920757047 498.12365295757047" stroke-linecap="round" stroke-linejoin="round" stroke-miterlimit="10" stroke-width="5" stroke-dasharray=""/></g><g><path fill="none" stroke="#2d70b3" class="dcg-svg-curve" paint-order="fill stroke markers" d=" M 973.6273526850556 -8 L 973.6273526850556 -8 L 763.671875 203.38007231328538 L 728.515625 237.30859347634595 L 710.5651540625978 253.90625000000003 L 690.5739149593588 271.484375 L 668.9030590788122 289.0625 L 652.5755338466382 301.01303384663817 L 640.625 308.9330928111649 L 631.1010059201836 314.69475592018375 L 623.046875 319.16356266924197 L 607.7998753998329 326.5498753998329 L 596.6796875 331.0039840342197 L 587.890625 333.93767780541793 L 574.8157877813837 337.29358721861615 L 570.3125 338.15786409191514 L 552.734375 340.00331828685796 L 545.6003904213785 340.0133788553446 L 530.76171875 338.5274693517145 L 522.610080482765 336.76491951723494 L 517.578125 335.3067340960108 L 513.8014739783096 334.0136231955108" stroke-linecap="round" stroke-linejoin="round" stroke-miterlimit="10" stroke-width="5" stroke-dasharray=""/></g><g><path fill="none" stroke="#2d70b3" class="dcg-svg-curve" paint-order="fill stroke markers" d=" M 513.3983543271246 333.2225730771246 L 513.3983543271246 333.2225730771246 L 514.9435162779574 329.1171709973148 L 522.1194603063515 311.18196030635147 L 531.7082653014661 289.0625 L 543.8967013429203 262.6467013429204 L 570.3125 207.560530821221 L 598.4180776090195 148.4375 L 623.046875 95.07497366505754 L 651.1547609690264 32.438989030973744 L 668.90565572652 -8" stroke-linecap="round" stroke-linejoin="round" stroke-miterlimit="10" stroke-width="5" stroke-dasharray=""/></g><g><path fill="none" stroke="#2d70b3" class="dcg-svg-curve" paint-order="fill stroke markers" d=" M 311.5764579500179 741.1579170499821 L 311.5764579500179 741.1579170499821 L 315.4296875 742.8726763599662 L 320.2591795470911 746.09375 L 324.21875 750.1033239406668 L 327.37062438897465 754.8828125 L 329.13531247334964 758.7553125266504 L 330.6669901259005 763.671875 L 332.0787464768715 773.3900035231284 L 332.1321289129046 781.25 L 331.1503669638404 791.8965080361597 L 329.0719874973459 803.6813624973458 L 326.0243842071467 816.40625 L 324.21875 822.9524493168551 L 317.40577998412147 844.7495299841215 L 308.8396090046654 869.140625 L 298.6451827640079 896.3014327640078 L 281.7159222193303 939.453125 L 258.56123502928097 996.8424850292809 L 254.00837303221573 1008" stroke-linecap="round" stroke-linejoin="round" stroke-miterlimit="10" stroke-width="5" stroke-dasharray=""/></g><g><path fill="none" stroke="#2d70b3" class="dcg-svg-curve" paint-order="fill stroke markers" d=" M -8 979.7160872352634 L -8 979.7160872352634 L 42.96875 930.4210126795217 L 89.00001687710039 886.71875 L 126.947727555759 851.5625 L 156.82784764625023 824.7965976462503 L 183.59374999999997 801.9138291834797 L 201.17187499999997 787.7192883570572 L 218.75000000000003 774.4577307970224 L 239.59531793907732 760.4046820609226 L 257.9399121572602 750.1274121572602 L 271.484375 744.2452121798243 L 283.56781451950815 740.599064519508 L 289.0625 739.5573311727626 L 299.45911973014313 738.9122447301431 L 306.640625 739.755317566624 L 311.5764579500179 741.1579170499821" stroke-linecap="round" stroke-linejoin="round" stroke-miterlimit="10" stroke-width="5" stroke-dasharray=""/></g></g><g id="sketch-b25c8cab"><title>Z₁</title><path fill="none" stroke="#000000" class="dcg-svg-point" paint-order="fill stroke markers" d=" M 797.7210327057929 498.02554093606466 L 797.7210327057929 498.2255409360647 L 797.921032705793 498.2255409360647 L 797.921032705793 498.02554093606466" stroke-linecap="round" stroke-linejoin="round" stroke-miterlimit="10" stroke-width="31.875" stroke-dasharray=""/></g><g id="sketch-b25c8cab"><title>Z₂</title><path fill="none" stroke="#000000" class="dcg-svg-point" paint-order="fill stroke markers" d=" M 513.0797320174695 333.68780936117594 L 513.0797320174695 333.887809361176 L 513.2797320174695 333.887809361176 L 513.2797320174695 333.68780936117594" stroke-linecap="round" stroke-linejoin="round" stroke-miterlimit="10" stroke-width="33.75" stroke-dasharray=""/></g><g id="sketch-b25c8cab"><title>Z₃</title><path fill="none" stroke="#000000" class="dcg-svg-point" paint-order="fill stroke markers" d=" M 323.31886489192055 246.9955094429773 L 323.31886489192055 247.19550944297728 L 323.5188648919206 247.19550944297728 L 323.5188648919206 246.9955094429773" stroke-linecap="round" stroke-linejoin="round" stroke-miterlimit="10" stroke-width="33.75" stroke-dasharray=""/></g><g id="sketch-b25c8cab"><title>Z₄</title><path fill="none" stroke="#000000" class="dcg-svg-point" paint-order="fill stroke markers" d=" M 228.4384313291461 498.02554093606466 L 228.4384313291461 498.2255409360647 L 228.6384313291461 498.2255409360647 L 228.6384313291461 498.02554093606466" stroke-linecap="round" stroke-linejoin="round" stroke-miterlimit="10" stroke-width="33.75" stroke-dasharray=""/></g><g id="sketch-b25c8cab"><title>Z₅</title><path fill="none" stroke="#000000" class="dcg-svg-point" paint-order="fill stroke markers" d=" M 323.31886489192055 749.055572429152 L 323.31886489192055 749.255572429152 L 323.5188648919206 749.255572429152 L 323.5188648919206 749.055572429152" stroke-linecap="round" stroke-linejoin="round" stroke-miterlimit="10" stroke-width="33.75" stroke-dasharray=""/></g><g id="sketch-b25c8cab"><title>Z₆</title><path fill="none" stroke="#000000" class="dcg-svg-point" paint-order="fill stroke markers" d=" M 513.0797320174695 662.3632725109534 L 513.0797320174695 662.5632725109534 L 513.2797320174695 662.5632725109534 L 513.2797320174695 662.3632725109534" stroke-linecap="round" stroke-linejoin="round" stroke-miterlimit="10" stroke-width="33.75" stroke-dasharray=""/></g></g><g id="labels-b25c8cab"><g transform="rotate(0,0,0) translate(770,464)"><g class="dcg-svg-label"><text fill="none" stroke="#FFF" font-family="arial, sans-serif" font-size="22px" font-style="normal" font-weight="400" text-decoration="normal" x="0" y="19.984" text-anchor="start" stroke-linecap="round" stroke-linejoin="round" stroke-miterlimit="2" stroke-width="3" stroke-dasharray="">Z₁</text><text fill="rgb(0, 0, 0)" stroke="none" font-family="arial, sans-serif" font-size="22px" font-style="normal" font-weight="400" text-decoration="normal" x="0" y="19.984" text-anchor="start">Z₁</text></g></g><g transform="rotate(0,0,0) translate(485,342)"><g class="dcg-svg-label"><text fill="none" stroke="#FFF" font-family="arial, sans-serif" font-size="22px" font-style="normal" font-weight="400" text-decoration="normal" x="0" y="19.984" text-anchor="start" stroke-linecap="round" stroke-linejoin="round" stroke-miterlimit="2" stroke-width="3" stroke-dasharray="">Z₂</text><text fill="rgb(0, 0, 0)" stroke="none" font-family="arial, sans-serif" font-size="22px" font-style="normal" font-weight="400" text-decoration="normal" x="0" y="19.984" text-anchor="start">Z₂</text></g></g><g transform="rotate(0,0,0) translate(338,234)"><g class="dcg-svg-label"><text fill="none" stroke="#FFF" font-family="arial, sans-serif" font-size="22px" font-style="normal" font-weight="400" text-decoration="normal" x="0" y="19.984" text-anchor="start" stroke-linecap="round" stroke-linejoin="round" stroke-miterlimit="2" stroke-width="3" stroke-dasharray="">Z₃</text><text fill="rgb(0, 0, 0)" stroke="none" font-family="arial, sans-serif" font-size="22px" font-style="normal" font-weight="400" text-decoration="normal" x="0" y="19.984" text-anchor="start">Z₃</text></g></g><g transform="rotate(0,0,0) translate(237,464)"><g class="dcg-svg-label"><text fill="none" stroke="#FFF" font-family="arial, sans-serif" font-size="22px" font-style="normal" font-weight="400" text-decoration="normal" x="0" y="19.984" text-anchor="start" stroke-linecap="round" stroke-linejoin="round" stroke-miterlimit="2" stroke-width="3" stroke-dasharray="">Z₄</text><text fill="rgb(0, 0, 0)" stroke="none" font-family="arial, sans-serif" font-size="22px" font-style="normal" font-weight="400" text-decoration="normal" x="0" y="19.984" text-anchor="start">Z₄</text></g></g><g transform="rotate(0,0,0) translate(338,736)"><g class="dcg-svg-label"><text fill="none" stroke="#FFF" font-family="arial, sans-serif" font-size="22px" font-style="normal" font-weight="400" text-decoration="normal" x="0" y="19.984" text-anchor="start" stroke-linecap="round" stroke-linejoin="round" stroke-miterlimit="2" stroke-width="3" stroke-dasharray="">Z₅</text><text fill="rgb(0, 0, 0)" stroke="none" font-family="arial, sans-serif" font-size="22px" font-style="normal" font-weight="400" text-decoration="normal" x="0" y="19.984" text-anchor="start">Z₅</text></g></g><g transform="rotate(0,0,0) translate(485,628)"><g class="dcg-svg-label"><text fill="none" stroke="#FFF" font-family="arial, sans-serif" font-size="22px" font-style="normal" font-weight="400" text-decoration="normal" x="0" y="19.984" text-anchor="start" stroke-linecap="round" stroke-linejoin="round" stroke-miterlimit="2" stroke-width="3" stroke-dasharray="">Z₆</text><text fill="rgb(0, 0, 0)" stroke="none" font-family="arial, sans-serif" font-size="22px" font-style="normal" font-weight="400" text-decoration="normal" x="0" y="19.984" text-anchor="start">Z₆</text></g></g></g><g id="labels-b25c8cab"/></g></svg>