<svg version="1.1" xmlns="http://www.w3.org/2000/svg" xmlns:xlink="http://www.w3.org/1999/xlink" width="2000" height="2000"><defs/><g transform="scale(2,2)"><g id="background-a97209b7"><rect fill="white" stroke="none" x="0" y="0" width="1000" height="1000" class="dcg-svg-background"/></g><g id="graphpaper-a97209b7"><g id="axis-a97209b7"><g id="yaxis-a97209b7"><title>Im</title><g><path fill="none" stroke="rgb(0,0,0)" class="dcg-svg-axis-line" paint-order="fill stroke markers" d=" M 418 0 L 418 1000" stroke-opacity="0.9" stroke-miterlimit="10" stroke-width="2" stroke-dasharray=""/></g></g><g id="xaxis-a97209b7"><title>Re</title><g><path fill="none" stroke="rgb(0,0,0)" class="dcg-svg-axis-line" paint-order="fill stroke markers" d=" M 0 498 L 1000 498" stroke-opacity="0.9" stroke-miterlimit="10" stroke-width="2" stroke-dasharray=""/></g></g><g><g class="dcg-svg-axis-value"><text fill="none" stroke="#ffffff" font-family="Arial" font-size="20px" font-style="normal" font-weight="normal" text-decoration="normal" x="407.7377750171951" y="518.5655409360647" text-anchor="middle" stroke-miterlimit="2" stroke-width="3" stroke-dasharray="">0</text><text fill="#000000" stroke="none" font-family="Arial" font-size="20px" font-style="normal" font-weight="normal" text-decoration="normal" x="407.7377750171951" y="518.5655409360647" text-anchor="middle">0</text></g><g><path fill="none" stroke="rgb(0,0,0)" class="dcg-svg-tickmark" paint-order="fill stroke markers" d=" M 39 494 L 39 502 M 134 494 L 134 502 M 229 494 L 229 502 M 323 494 L 323 502 M 513 494 L 513 502 M 608 494 L 608 502 M 703 494 L 703 502 M 798 494 L 798 502 M 893 494 L 893 502 M 988 494 L 988 502 M 414 973 L 422 973 M 414 878 L 422 878 M 414 783 L 422 783 M 414 688 L 422 688 M 414 593 L 422 593 M 414 403 L 422 403 M 414 308 L 422 308 M 414 213 L 422 213 M 414 119 L 422 119 M 414 24 L 422 24" stroke-opacity="0.9" stroke-miterlimit="2" stroke-width="2" stroke-dasharray=""/></g><g class="dcg-svg-axis-value"><text fill="none" stroke="#ffffff" font-family="Arial" font-size="20px" font-style="normal" font-weight="normal" text-decoration="normal" x="35.44748607859714" y="518.5655409360647" text-anchor="middle" stroke-miterlimit="2" stroke-width="3" stroke-dasharray="">-2</text><text fill="#000000" stroke="none" font-family="Arial" font-size="20px" font-style="normal" font-weight="normal" text-decoration="normal" x="35.44748607859714" y="518.5655409360647" text-anchor="middle">-2</text></g><g class="dcg-svg-axis-value"><text fill="none" stroke="#ffffff" font-family="Arial" font-size="20px" font-style="normal" font-weight="normal" text-decoration="normal" x="130.32791964137164" y="518.5655409360647" text-anchor="middle" stroke-miterlimit="2" stroke-width="3" stroke-dasharray="">-1.5</text><text fill="#000000" stroke="none" font-family="Arial" font-size="20px" font-style="normal" font-weight="normal" text-decoration="normal" x="130.32791964137164" y="518.5655409360647" text-anchor="middle">-1.5</text></g><g class="dcg-svg-axis-value"><text fill="none" stroke="#ffffff" font-family="Arial" font-size="20px" font-style="normal" font-weight="normal" text-decoration="normal" x="225.2083532041461" y="518.5655409360647" text-anchor="middle" stroke-miterlimit="2" stroke-width="3" stroke-dasharray="">-1</text><text fill="#000000" stroke="none" font-family="Arial" font-size="20px" font-style="normal" font-weight="normal" text-decoration="normal" x="225.2083532041461" y="518.5655409360647" text-anchor="middle">-1</text></g><g class="dcg-svg-axis-value"><text fill="none" stroke="#ffffff" font-family="Arial" font-size="20px" font-style="normal" font-weight="normal" text-decoration="normal" x="320.0887867669206" y="518.5655409360647" text-anchor="middle" stroke-miterlimit="2" stroke-width="3" stroke-dasharray="">-0.5</text><text fill="#000000" stroke="none" font-family="Arial" font-size="20px" font-style="normal" font-weight="normal" text-decoration="normal" x="320.0887867669206" y="518.5655409360647" text-anchor="middle">-0.5</text></g><g class="dcg-svg-axis-value"><text fill="none" stroke="#ffffff" font-family="Arial" font-size="20px" font-style="normal" font-weight="normal" text-decoration="normal" x="513.1797320174695" y="518.5655409360647" text-anchor="middle" stroke-miterlimit="2" stroke-width="3" stroke-dasharray="">0.5</text><text fill="#000000" stroke="none" font-family="Arial" font-size="20px" font-style="normal" font-weight="normal" text-decoration="normal" x="513.1797320174695" y="518.5655409360647" text-anchor="middle">0.5</text></g><g class="dcg-svg-axis-value"><text fill="none" stroke="#ffffff" font-family="Arial" font-size="20px" font-style="normal" font-weight="normal" text-decoration="normal" x="608.0601655802441" y="518.5655409360647" text-anchor="middle" stroke-miterlimit="2" stroke-width="3" stroke-dasharray="">1</text><text fill="#000000" stroke="none" font-family="Arial" font-size="20px" font-style="normal" font-weight="normal" text-decoration="normal" x="608.0601655802441" y="518.5655409360647" text-anchor="middle">1</text></g><g class="dcg-svg-axis-value"><text fill="none" stroke="#ffffff" font-family="Arial" font-size="20px" font-style="normal" font-weight="normal" text-decoration="normal" x="702.9405991430185" y="518.5655409360647" text-anchor="middle" stroke-miterlimit="2" stroke-width="3" stroke-dasharray="">1.5</text><text fill="#000000" stroke="none" font-family="Arial" font-size="20px" font-style="normal" font-weight="normal" text-decoration="normal" x="702.9405991430185" y="518.5655409360647" text-anchor="middle">1.5</text></g><g class="dcg-svg-axis-value"><text fill="none" stroke="#ffffff" font-family="Arial" font-size="20px" font-style="normal" font-weight="normal" text-decoration="normal" x="797.821032705793" y="518.5655409360647" text-anchor="middle" stroke-miterlimit="2" stroke-width="3" stroke-dasharray="">2</text><text fill="#000000" stroke="none" font-family="Arial" font-size="20px" font-style="normal" font-weight="normal" text-decoration="normal" x="797.821032705793" y="518.5655409360647" text-anchor="middle">2</text></g><g class="dcg-svg-axis-value"><text fill="none" stroke="#ffffff" font-family="Arial" font-size="20px" font-style="normal" font-weight="normal" text-decoration="normal" x="892.7014662685675" y="518.5655409360647" text-anchor="middle" stroke-miterlimit="2" stroke-width="3" stroke-dasharray="">2.5</text><text fill="#000000" stroke="none" font-family="Arial" font-size="20px" font-style="normal" font-weight="normal" text-decoration="normal" x="892.7014662685675" y="518.5655409360647" text-anchor="middle">2.5</text></g><g class="dcg-svg-axis-value"><text fill="none" stroke="#ffffff" font-family="Arial" font-size="20px" font-style="normal" font-weight="normal" text-decoration="normal" x="987.581899831342" y="518.5655409360647" text-anchor="middle" stroke-miterlimit="2" stroke-width="3" stroke-dasharray="">3</text><text fill="#000000" stroke="none" font-family="Arial" font-size="20px" font-style="normal" font-weight="normal" text-decoration="normal" x="987.581899831342" y="518.5655409360647" text-anchor="middle">3</text></g><g class="dcg-svg-axis-value"><text fill="none" stroke="#ffffff" font-family="Arial" font-size="20px" font-style="normal" font-weight="normal" text-decoration="normal" x="396.0678531421951" y="977.9677087499365" text-anchor="middle" stroke-miterlimit="2" stroke-width="3" stroke-dasharray="">-2.5</text><text fill="#000000" stroke="none" font-family="Arial" font-size="20px" font-style="normal" font-weight="normal" text-decoration="normal" x="396.0678531421951" y="977.9677087499365" text-anchor="middle">-2.5</text></g><g class="dcg-svg-axis-value"><text fill="none" stroke="#ffffff" font-family="Arial" font-size="20px" font-style="normal" font-weight="normal" text-decoration="normal" x="404.4076968921951" y="883.0872751871622" text-anchor="middle" stroke-miterlimit="2" stroke-width="3" stroke-dasharray="">-2</text><text fill="#000000" stroke="none" font-family="Arial" font-size="20px" font-style="normal" font-weight="normal" text-decoration="normal" x="404.4076968921951" y="883.0872751871622" text-anchor="middle">-2</text></g><g class="dcg-svg-axis-value"><text fill="none" stroke="#ffffff" font-family="Arial" font-size="20px" font-style="normal" font-weight="normal" text-decoration="normal" x="396.0678531421951" y="788.2068416243878" text-anchor="middle" stroke-miterlimit="2" stroke-width="3" stroke-dasharray="">-1.5</text><text fill="#000000" stroke="none" font-family="Arial" font-size="20px" font-style="normal" font-weight="normal" text-decoration="normal" x="396.0678531421951" y="788.2068416243878" text-anchor="middle">-1.5</text></g><g class="dcg-svg-axis-value"><text fill="none" stroke="#ffffff" font-family="Arial" font-size="20px" font-style="normal" font-weight="normal" text-decoration="normal" x="404.4076968921951" y="693.3264080616134" text-anchor="middle" stroke-miterlimit="2" stroke-width="3" stroke-dasharray="">-1</text><text fill="#000000" stroke="none" font-family="Arial" font-size="20px" font-style="normal" font-weight="normal" text-decoration="normal" x="404.4076968921951" y="693.3264080616134" text-anchor="middle">-1</text></g><g class="dcg-svg-axis-value"><text fill="none" stroke="#ffffff" font-family="Arial" font-size="20px" font-style="normal" font-weight="normal" text-decoration="normal" x="396.0678531421951" y="598.4459744988391" text-anchor="middle" stroke-miterlimit="2" stroke-width="3" stroke-dasharray="">-0.5</text><text fill="#000000" stroke="none" font-family="Arial" font-size="20px" font-style="normal" font-weight="normal" text-decoration="normal" x="396.0678531421951" y="598.4459744988391" text-anchor="middle">-0.5</text></g><g class="dcg-svg-axis-value"><text fill="none" stroke="#ffffff" font-family="Arial" font-size="20px" font-style="normal" font-weight="normal" text-decoration="normal" x="399.3979312671951" y="408.68510737329035" text-anchor="middle" stroke-miterlimit="2" stroke-width="3" stroke-dasharray="">0.5</text><text fill="#000000" stroke="none" font-family="Arial" font-size="20px" font-style="normal" font-weight="normal" text-decoration="normal" x="399.3979312671951" y="408.68510737329035" text-anchor="middle">0.5</text></g><g class="dcg-svg-axis-value"><text fill="none" stroke="#ffffff" font-family="Arial" font-size="20px" font-style="normal" font-weight="normal" text-decoration="normal" x="407.7377750171951" y="313.80467381051596" text-anchor="middle" stroke-miterlimit="2" stroke-width="3" stroke-dasharray="">1</text><text fill="#000000" stroke="none" font-family="Arial" font-size="20px" font-style="normal" font-weight="normal" text-decoration="normal" x="407.7377750171951" y="313.80467381051596" text-anchor="middle">1</text></g><g class="dcg-svg-axis-value"><text fill="none" stroke="#ffffff" font-family="Arial" font-size="20px" font-style="normal" font-weight="normal" text-decoration="normal" x="399.3979312671951" y="218.92424024774158" text-anchor="middle" stroke-miterlimit="2" stroke-width="3" stroke-dasharray="">1.5</text><text fill="#000000" stroke="none" font-family="Arial" font-size="20px" font-style="normal" font-weight="normal" text-decoration="normal" x="399.3979312671951" y="218.92424024774158" text-anchor="middle">1.5</text></g><g class="dcg-svg-axis-value"><text fill="none" stroke="#ffffff" font-family="Arial" font-size="20px" font-style="normal" font-weight="normal" text-decoration="normal" x="407.7377750171951" y="124.04380668496725" text-anchor="middle" stroke-miterlimit="2" stroke-width="3" stroke-dasharray="">2</text><text fill="#000000" stroke="none" font-family="Arial" font-size="20px" font-style="normal" font-weight="normal" text-decoration="normal" x="407.7377750171951" y="124.04380668496725" text-anchor="middle">2</text></g><g class="dcg-svg-axis-value"><text fill="none" stroke="#ffffff" font-family="Arial" font-size="20px" font-style="normal" font-weight="normal" text-decoration="normal" x="399.3979312671951" y="29.163373122192926" text-anchor="middle" stroke-miterlimit="2" stroke-width="3" stroke-dasharray="">2.5</text><text fill="#000000" stroke="none" font-family="Arial" font-size="20px" font-style="normal" font-weight="normal" text-decoration="normal" x="399.3979312671951" y="29.163373122192926" text-anchor="middle">2.5</text></g></g><g class="dcg-svg-axis-label"><text fill="none" stroke="#ffffff" font-family="Times" font-size="28px" font-style="italic" font-weight="normal" text-decoration="normal" x="955.46875" y="543.1255409360647" text-anchor="start" stroke-miterlimit="2" stroke-width="3" stroke-dasharray="">Re</text><text fill="#000000" stroke="none" font-family="Times" font-size="28px" font-style="italic" font-weight="normal" text-decoration="normal" x="955.46875" y="543.1255409360647" text-anchor="start">Re</text></g><g class="dcg-svg-axis-label" transform="translate(344.2914859546951,35)"><text fill="none" stroke="#ffffff" font-family="Times" font-size="28px" font-style="italic" font-weight="normal" text-decoration="normal" x="0" y="0" text-anchor="start" stroke-miterlimit="2" stroke-width="3" stroke-dasharray="">Im</text><text fill="#000000" stroke="none" font-family="Times" font-size="28px" font-style="italic" font-weight="normal" text-decoration="normal" x="0" y="0" text-anchor="start">Im</text></g></g></g><g id="expressions-a97209b7"><g id="sketch-a97209b7"><title>Expression 4</title><path fill="#c74440" stroke="none" paint-order="stroke fill markers" d="" fill-opacity="0.4"/><g><path fill="none" stroke="#c74440" class="dcg-svg-curve" paint-order="fill stroke markers" d=" M 132.2513273907426 -8 L 132.2513273907426 -8 L 179.421816311446 60.546875 L 218.75000000000003 116.48638790406511 L 246.9234784352415 155.42027156475848 L 271.484375 188.00053278881433 L 289.0625 210.04787498044868 L 296.3645989834526 218.75 L 312.24148455002256 236.328125 L 327.54357615892974 250.58142384107023 L 333.0078125 254.66152874292538 L 340.48472164096114 258.95685792951946 L 344.1313945923069 260.36079290769317 L 346.19140625 260.9121858785228 L 350.5859375 261.4158032317047 L 352.2934092764604 261.3368765964859 L 356.9237379081393 260.24405040813934 L 359.96450171353126 258.74290753514845 L 362.4557039705067 256.9869539705067 L 365.68444973941627 253.90625000000006 L 368.1640625 250.82209824555937 L 371.67175585882444 245.11718750000003 L 375.8796039130169 235.25460391301692 L 378.16686308739077 227.5390625 L 380.0446963526032 218.75 L 381.7669211648953 205.98567116489534 L 382.5105947969733 195.61440520302676 L 382.8176973947476 183.59375000000006 L 382.45831389616006 166.015625 L 381.3945982838812 148.43750000000006 L 379.5547471406684 128.25775285933162 L 375.79695063577896 96.85929936422122 L 373.19595973633045 78.12500000000006 L 367.83263805775925 42.96875000000006 L 361.6518494476811 5.535650552318884 L 359.3079807054384 -8" stroke-linecap="round" stroke-linejoin="round" stroke-miterlimit="10" stroke-width="5" stroke-dasharray=""/></g><g><path fill="none" stroke="#c74440" class="dcg-svg-curve" paint-order="fill stroke markers" d=" M 557.8097179583789 -8 L 557.8097179583789 -8 L 546.1522274847803 42.96874999999994 L 527.759077862675 120.67842213732513 L 516.9385912211003 166.65515877889982 L 509.4593804526284 201.17187500000006 L 505.2871726891367 224.0371726891367 L 503.4780406145673 236.328125 L 501.52597658059034 255.43222658059037 L 501.12604390525235 262.6953125 L 500.9450186269123 272.4293936269123 L 501.5897402383204 287.4727597616796 L 501.9224269114339 290.98492691143383 L 503.64728178516486 302.99334321483514 L 505.80649695339844 312.8049044646276 L 508.7890625 322.7645517784056 L 512.0700148572047 331.28791451060744 L 512.9318032265552 333.25960302344475" stroke-linecap="round" stroke-linejoin="round" stroke-miterlimit="10" stroke-width="5" stroke-dasharray=""/></g><g><path fill="none" stroke="#c74440" class="dcg-svg-curve" paint-order="fill stroke markers" d=" M 512.3895302845398 334.1441440800552 L 512.3895302845398 334.1441440800552 L 504.2584047678578 337.5384702321421 L 500 339.09770401405524 L 491.366693335764 341.796875 L 479.78004334124506 344.438706658755 L 464.84375 346.1822350298283 L 447.265625 345.85900917830617 L 443.5897452584195 345.4727547415805 L 429.6875 343.0491112747794 L 424.60971032938625 341.796875 L 412.109375 337.9407335859107 L 406.01152636353066 335.6990263635307 L 389.8306195872493 328.9193804127507 L 376.953125 323.3034837534651 L 364.7016445399885 318.8921054600115 L 359.375 317.59482140425206 L 351.74635792232306 316.590107922323 L 341.796875 316.64301999338613 L 306.640625 319.74568983663397 L 289.0625 319.34285960410244 L 283.68679282443895 318.84304282443895 L 271.484375 317.07252193100527 L 262.81819866705155 315.3068013329485 L 253.90625 313.0845306325437 L 233.54735024999084 306.640625 L 210.3931357069762 297.4193642930238 L 192.14048419270986 289.0625 L 175.1650045396951 280.63375453969513 L 148.4375 266.40054805207774 L 118.0136320450228 249.1738679549772 L 95.02142186243663 235.64642186243663 L 52.114520906421944 209.60422909357823 L 3.447187286607459 179.22843728660746 L -8 171.96939905042052" stroke-linecap="round" stroke-linejoin="round" stroke-miterlimit="10" stroke-width="5" stroke-dasharray=""/></g><g><path fill="none" stroke="#c74440" class="dcg-svg-curve" paint-order="fill stroke markers" d=" M 227.77258426731086 490.9774157326891 L 227.77258426731086 490.9774157326891 L 227.89380838087953 491.56568338087953 L 228.52668601103755 499.01237648896245 L 228.4859820735847 500 L 226.99694474492497 508.246944744925 L 226.45682142066923 509.8713035793308 L 222.72272737574835 517.578125 L 218.75000000000003 523.1209487833767 L 216.78712382619335 525.3857494130966 L 212.89119500565752 529.2974450056574 L 205.73480938322294 535.15625 L 201.17187499999997 538.29445478002 L 192.0727440489342 543.6352440489342 L 183.59374999999997 547.8330587008625 L 167.16659461492333 554.5773557125184 L 162.49580277719602 556.254197222804 L 141.14171354667104 563.016713546671 L 130.859375 565.8847980558835 L 113.16932238835938 570.4244276116407 L 78.125 578.4783015731825 L 33.04380217992667 587.890625 L -8 596.0087856365518" stroke-linecap="round" stroke-linejoin="round" stroke-miterlimit="10" stroke-width="5" stroke-dasharray=""/></g><g><path fill="none" stroke="#c74440" class="dcg-svg-curve" paint-order="fill stroke markers" d=" M -8 400.25729988784803 L -8 400.25729988784803 L 42.96875 410.37814175951183 L 87.8869511115027 419.92554888849736 L 116.35503486356043 426.61371513643957 L 130.859375 430.3663298834983 L 148.4375 435.40411994927047 L 166.01562499999994 441.25244399355586 L 170.39454137311506 442.8867086268849 L 183.59374999999997 448.41803774762644 L 194.49706278211522 453.9404372178848 L 201.17187499999997 457.95649647979275 L 210.5059221868007 464.84375 L 214.80315112275966 468.7905988772403 L 219.15823188597167 473.6328125 L 223.9541582800596 480.80262093988085 L 225.64815074304283 484.31278675695717 L 227.5390625 489.96605173620486 L 227.77258426731086 490.9774157326891" stroke-linecap="round" stroke-linejoin="round" stroke-miterlimit="10" stroke-width="5" stroke-dasharray=""/></g><g><path fill="none" stroke="#c74440" class="dcg-svg-curve" paint-order="fill stroke markers" d=" M 758.382593657449 55.25759365744909 L 758.382593657449 55.25759365744909 L 801.4624001721729 -8" stroke-linecap="round" stroke-linejoin="round" stroke-miterlimit="10" stroke-width="5" stroke-dasharray=""/></g><g><path fill="none" stroke="#c74440" class="dcg-svg-curve" paint-order="fill stroke markers" d=" M 1008 141.32861858143332 L 1008 141.32861858143332 L 953.0153817002916 179.5778817002917 L 897.7538948676308 218.75 L 849.2303037846488 253.90625 L 798.828125 291.3269616577636 L 746.09375 330.6961747285718 L 723.912761804406 346.39973819559384 L 703.8503281253534 359.375 L 685.8996683474052 369.4934183474052 L 670.1062881180579 376.953125 L 658.203125 381.59583063649615 L 651.2529910453951 383.9032589546049 L 634.3416878135155 388.24793781351553 L 623.046875 390.12170421914783 L 605.46875 391.3016172110095 L 602.2098969340448 391.27239693404476 L 590.7224921230547 390.4924995935499 L 576.8590273950986 387.9847226049013 L 569.1877256864852 385.7421875 L 561.5234375 382.78966633547543 L 551.8306986177453 377.8568013822548 L 550.3256847334665 376.953125 L 541.4088049755937 370.7005700244063 L 535.15625 365.23303112936446 L 529.5544803674729 359.375 L 522.697240986405 350.5859375 L 515.380859375 338.3354543025747 L 513.1836008738464 333.7964367427862 L 526.3671875 327.06416741867315 L 535.15625 321.8188064737835 L 542.1663881579973 317.2086118420027 L 556.5027281707187 306.64062500000006 L 573.4841341071827 292.2341341071828 L 576.9413361298929 289.0625 L 594.7941473168512 271.484375 L 611.0150943897866 253.90625 L 626.1240043474323 236.328125 L 640.625 218.52028014261276 L 667.4920683029599 183.59375 L 693.359375 148.2378554848196 L 728.515625 98.47151896594443 L 758.382593657449 55.25759365744909" stroke-linecap="round" stroke-linejoin="round" stroke-miterlimit="10" stroke-width="5" stroke-dasharray=""/></g><g><path fill="none" stroke="#c74440" class="dcg-svg-curve" paint-order="fill stroke markers" d=" M 968.8326454090987 406.3326454090989 L 968.8326454090987 406.3326454090989 L 1008 396.80346339617415" stroke-linecap="round" stroke-linejoin="round" stroke-miterlimit="10" stroke-width="5" stroke-dasharray=""/></g><g><path fill="none" stroke="#c74440" class="dcg-svg-curve" paint-order="fill stroke markers" d=" M 1008 599.412109032011 L 1008 599.412109032011 L 992.1875 595.682465963847 L 957.03125 586.9018697709851 L 921.875 577.3367259641976 L 898.6106258018035 570.3125 L 880.7345852608028 564.3283352608028 L 863.8838261105604 557.9911738894394 L 851.5625 552.7335201756919 L 833.984375 543.7876890182921 L 818.3331654449939 533.229334555006 L 816.40625 531.6327990989764 L 809.2717021956914 524.7126728043087 L 807.6171875 522.7816205699211 L 802.0091401878697 514.3971098121305 L 799.6048554405852 508.7890625 L 798.828125 506.1475313794425 L 797.8758016365398 500 L 798.828125 490.1026069805457 L 800.8576365002834 484.2429306026466 L 806.9436127835525 474.3063872164477 L 817.7751831945236 463.47481680547645 L 837.3135019808342 450.594751980834 L 851.5625 443.51767919768207 L 869.140625 436.19294312312127 L 887.1929427835927 429.6875 L 913.53875030267 421.3512503026699 L 940.946236843868 413.60248684386784 L 968.8326454090987 406.3326454090989" stroke-linecap="round" stroke-linejoin="round" stroke-miterlimit="10" stroke-width="5" stroke-dasharray=""/></g><g><path fill="none" stroke="#c74440" class="dcg-svg-curve" paint-order="fill stroke markers" d=" M 623.8069826264717 606.2288576264718 L 623.8069826264717 606.2288576264718 L 637.4326428907285 608.6611071092715 L 645.945255537114 610.789005537114 L 658.203125 614.655155614801 L 664.3176770338649 616.932322966135 L 678.4231777890857 623.046875 L 693.359375 630.765100647202 L 712.7745604042482 642.4620604042482 L 735.8918952751903 658.203125 L 763.671875 678.5411675105099 L 854.3495808446894 746.09375 L 904.2968749999999 782.1816794372975 L 957.03125 819.4914293811398 L 1008 854.9292232474963" stroke-linecap="round" stroke-linejoin="round" stroke-miterlimit="10" stroke-width="5" stroke-dasharray=""/></g><g><path fill="none" stroke="#c74440" class="dcg-svg-curve" paint-order="fill stroke markers" d=" M 804.0014369196132 1008 L 804.0014369196132 1008 L 757.324877993972 939.453125 L 710.9375 872.705465092812 L 683.2129862361428 833.984375 L 657.0526065901183 798.828125 L 640.625 777.7307843917492 L 623.046875 756.2568145809157 L 605.46875 736.1741001060301 L 587.890625 717.7374099280344 L 575.4443735746777 705.8056264253223 L 561.1556157192689 693.359375 L 552.734375 686.6868292388383 L 535.15625 674.4325276628376 L 524.2844763015731 668.0335430992134 L 517.578125 664.5502898402742 L 513.2492685335293 662.5319814664707 L 516.0328439046463 656.6578439046463 L 520.2164350874643 649.4140625 L 522.6649736465844 645.7118486465844 L 526.431827754761 640.625 L 530.4265588833307 635.8953088833307 L 535.15625 631.0178274996214 L 544.7065645674891 623.046875 L 552.734375 617.8708851050154 L 562.9123079976163 612.8689420023837 L 573.8973736759808 609.0536236759808 L 579.1015625 607.7326265207466 L 588.4653078942467 606.0434328942468 L 596.6796875 605.2184466398554 L 605.9851113615313 604.9523886384686 L 616.8968214930027 605.46875 L 623.8069826264717 606.2288576264718" stroke-linecap="round" stroke-linejoin="round" stroke-miterlimit="10" stroke-width="5" stroke-dasharray=""/></g><g><path fill="none" stroke="#c74440" class="dcg-svg-curve" paint-order="fill stroke markers" d=" M 513.131384154553 662.59765625 L 513.131384154553 662.59765625 L 510.52994209451947 668.7330670945195 L 508.0254607845629 675.78125 L 505.04514336388957 686.5483046906226 L 503.62884114848373 693.359375 L 502.28052399788686 702.1484375 L 501.1435986471688 715.6812233577378 L 500.99875190771724 729.5143769077172 L 501.7903571616783 744.3033928383217 L 502.14082594473166 748.2345759447317 L 503.99023037077006 763.671875 L 506.82908095613845 781.25 L 511.48546615529494 804.920783844705 L 518.0573320036174 834.4635820036174 L 535.15625 906.5926148559023 L 552.734375 981.7522206294227 L 558.6879490219569 1008" stroke-linecap="round" stroke-linejoin="round" stroke-miterlimit="10" stroke-width="5" stroke-dasharray=""/></g><g><path fill="none" stroke="#c74440" class="dcg-svg-curve" paint-order="fill stroke markers" d=" M 358.6208391071757 1008 L 358.6208391071757 1008 L 364.35799073180993 974.609375 L 370.9274877992034 933.4274877992034 L 375.3541676833477 902.6979176833474 L 377.4192116187073 886.71875 L 379.7223824918871 866.3713675081128 L 381.09662324760814 851.5625 L 382.5327936776488 828.4047063223511 L 382.81297653621675 816.40625 L 382.41632317604245 798.828125 L 381.67880915625955 789.3767566874808 L 380.14286197975946 778.0602630202407 L 379.04997909405506 772.4609375 L 376.6624082483105 763.3811582483105 L 373.4863839331692 754.8828125 L 371.75494943727205 751.291925562728 L 368.3598163000483 745.7022423999033 L 362.5353716439151 739.3289400170636 L 359.06372493409833 736.9934124340983 L 354.98046875 735.3834407685304 L 350.5859375 734.8357182026471 L 347.9262188464949 735.0258707668888 L 341.796875 736.7296049503439 L 336.7979013651063 739.1997319325532 L 333.0078125 741.5894520766913 L 324.21875 748.455144958564 L 306.640625 765.8742654961953 L 289.0625 786.2034639547006 L 271.484375 808.2503331524541 L 251.9886620874389 833.984375 L 226.3506818518046 869.140625 L 189.05928495330252 921.875 L 143.69176651567125 987.4417665156711 L 129.62063280189247 1008" stroke-linecap="round" stroke-linejoin="round" stroke-miterlimit="10" stroke-width="5" stroke-dasharray=""/></g><g><path fill="none" stroke="#c74440" class="dcg-svg-curve" paint-order="fill stroke markers" d=" M -8 824.3476201541213 L -8 824.3476201541213 L 32.46095098803045 798.828125 L 78.12500000000006 770.7540355738815 L 119.71112448358559 746.09375 L 150.86943100390903 728.515625 L 166.015625 720.3728523184125 L 184.4509507906505 710.9375 L 207.78593820666435 699.9734382066644 L 223.58986820536433 693.359375 L 236.32812500000003 688.6285569374327 L 243.42446472486156 686.2630352751385 L 259.781818950015 681.656818950015 L 271.484375 679.1784533471206 L 290.1125496043652 676.8312996043653 L 298.5282394507894 676.4579269507894 L 307.38879893804807 676.529423938048 L 322.3902825569334 677.6097174430665 L 345.79799230849096 679.782367308491 L 350.5859375 679.7266537892567 L 359.375 678.6563336083126 L 361.7333216336277 678.1395716336277 L 369.62688061037926 675.78125 L 376.953125 672.9475968860645 L 394.53125 665.2729583424508 L 412.41698386418597 658.203125 L 429.6875 653.2019996455327 L 440.28076278982155 651.2182627898216 L 447.265625 650.3920442125975 L 455.5454847342086 649.9232652657914 L 464.84375 650.0687931867328 L 475.3137550582202 651.0950050582202 L 487.2407340846197 653.3842659153802 L 494.1767744246167 655.2644001438458 L 504.39453125 658.7650209409211 L 508.7890625 660.537297094 L 513.131384154553 662.59765625" stroke-linecap="round" stroke-linejoin="round" stroke-miterlimit="10" stroke-width="5" stroke-dasharray=""/></g></g><g id="sketch-a97209b7"><title>Expression 6</title><path fill="#2d70b3" stroke="none" paint-order="stroke fill markers" d="" fill-opacity="0.4"/><g><path fill="none" stroke="#2d70b3" class="dcg-svg-curve" paint-order="fill stroke markers" d=" M -8 16.56132616721238 L -8 16.56132616721238 L 42.96875 65.83011702626885 L 92.99794969539522 113.28125 L 131.0682916287929 148.43750000000006 L 158.82644009790056 173.2048099020995 L 183.59374999999997 194.33718680349995 L 201.17187499999997 208.53171878562966 L 218.75000000000003 221.79323907935566 L 237.8812132668796 234.77503673312043 L 240.37525138780424 236.328125 L 253.90625000000003 244.0685446645916 L 260.4673111356301 247.34518886436993 L 271.484375 252.00576073699392 L 277.0800770121565 253.90625 L 289.0625 256.69372298099296 L 296.0101201635261 257.3408400134366 L 303.53318506428707 257.013689935713 L 308.73092655248206 255.99655155248215 L 315.22080419478027 253.4884833895605 L 320.3742153422306 250.06171534223057 L 325.01340740135095 245.11718750000003 L 328.0058883693713 240.11526336937123 L 329.5625828073589 236.328125 L 331.6218982429188 227.53906249999994 L 331.7780482475096 226.30929824750956 L 332.2049299572391 218.75 L 331.8912692201522 211.07748077984792 L 331.1911596611698 204.6547058677092 L 326.9920291135628 183.59375000000006 L 324.21875 173.2988506518435 L 318.34045066110343 154.3157993388965 L 310.2011536037011 130.85937500000006 L 299.6836642154308 102.66008578456939 L 283.20916246094293 60.546875 L 259.6452806488407 2.073469351159247 L 255.53705046740825 -8" stroke-linecap="round" stroke-linejoin="round" stroke-miterlimit="10" stroke-width="5" stroke-dasharray=""/></g><g><path fill="none" stroke="#2d70b3" class="dcg-svg-curve" paint-order="fill stroke markers" d=" M 457.2383892647771 -8 L 457.2383892647771 -8 L 456.1828634047362 25.39062500000017 L 454.00005452671326 78.12500000000006 L 451.4423663573296 126.68263364267045 L 447.32796624205685 201.23421624205696 L 447.265625 203.16462267589685 L 447.02508274549245 218.75 L 447.6355532594614 236.6980532594614 L 449.70239657143367 253.90625 L 452.4994767209011 266.25052327909884 L 454.10530880052886 271.484375 L 458.6135040663163 282.83225406631635 L 462.8838098199705 291.02244018002943 L 467.22136288571545 297.8515625 L 474.0666686624097 306.640625 L 482.421875 315.1239881700773 L 487.36092474577237 319.27970025422763 L 494.24058164952373 324.21875 L 501.67652243008877 328.61328125 L 509.4777866017109 332.3190883982891 L 513.1755661411919 333.8391590158308 L 507.6201515109655 349.41702651096557 L 503.3311711443876 362.7061711443876 L 499.19351220152305 376.953125 L 494.7449828526514 394.53125 L 491.0086232109717 412.109375 L 487.96817458917474 429.6875 L 485.04450325857505 452.5108815171501 L 483.3715820844951 473.6328125 L 482.74090889208634 491.52997139208634 L 482.421875 498.12553275957833 L 359.375 498.1255408436672 L 297.8515625 498.12552319416034 L 297.2601585854438 499.4085960854438 L 296.99175076241966 505.3498155496787 L 296.5008637885261 510.1397612114739 L 295.24444971242224 517.578125 L 293.85864658629447 523.3163957973301 L 289.0625 536.9175274206791 L 283.78475035361987 547.4566253536199 L 280.2734375 553.2151104597802 L 274.35559806816184 561.5234375 L 266.8913198245796 570.3125 L 260.4454181241261 576.851668124126 L 253.90625 582.753359745079 L 241.15219008060907 592.714690080609 L 236.328125 596.07244626083 L 215.3502793433896 608.8684706566104 L 196.6975028300471 618.5725028300471 L 172.6881400062944 629.7193900062944 L 147.17976459500704 640.625 L 97.96201810293059 660.4620181029305 L -8 702.0981058803872" stroke-linecap="round" stroke-linejoin="round" stroke-miterlimit="10" stroke-width="5" stroke-dasharray=""/></g><g><path fill="none" stroke="#2d70b3" class="dcg-svg-curve" paint-order="fill stroke markers" d=" M -8 498.10630493773 L -8 498.10630493773 L 297.2701977704374 497.802734375 L 297.069738788019 491.992761211981 L 296.5886125194394 486.81640625 L 295.2697947302498 478.79634803950034 L 294.41283155636927 475.0519456583355 L 291.2687464079797 464.84375 L 289.0625 459.3330467561551 L 282.89760379758627 447.265625 L 278.4438823501589 440.3061176498411 L 270.2354627313483 429.6875 L 262.347738604255 421.246011395745 L 252.26232446921816 412.109375 L 243.32394469469847 405.11355530530153 L 236.328125 400.1787041641901 L 222.06804265531412 391.213207344686 L 207.2284648381797 383.00971483817966 L 195.2133106084672 376.953125 L 175.28333522046998 367.6854147795301 L 148.4375 356.1492719213858 L 113.099204448465 341.796875 L 23.712290770244408 306.640625 L -8 294.16310464706675" stroke-linecap="round" stroke-linejoin="round" stroke-miterlimit="10" stroke-width="5" stroke-dasharray=""/></g><g><path fill="none" stroke="#2d70b3" class="dcg-svg-curve" paint-order="fill stroke markers" d=" M 484.94005920757047 498.12365295757047 L 484.94005920757047 498.12365295757047 L 607.3431508791422 498.1255991208578 L 737.3046874999999 498.125535549835 L 739.2140369114559 497.514818161456 L 739.4600126095179 491.2109375 L 740.0938991735514 485.2110866735515 L 741.4210630859715 477.7491880859715 L 741.7626182070555 476.2413800876383 L 745.4054555310655 464.1554555310656 L 746.09375 462.34061352986316 L 753.2834023363414 447.265625 L 757.201354148924 440.795104148924 L 765.1441966715468 429.6875 L 772.5111062001787 420.94860620017874 L 781.25 411.85905036965056 L 790.2437314949408 403.5249814949408 L 801.0078427789365 394.53125 L 816.40625 382.9918688659792 L 833.984375 371.1531871656375 L 853.1304984859112 359.375 L 874.5201133088037 347.17636330880384 L 904.296875 331.34595185739346 L 939.453125 313.79722268979134 L 974.609375 297.0533575861191 L 1008 281.7536151693546" stroke-linecap="round" stroke-linejoin="round" stroke-miterlimit="10" stroke-width="5" stroke-dasharray=""/></g><g><path fill="none" stroke="#2d70b3" class="dcg-svg-curve" paint-order="fill stroke markers" d=" M 1008 498.1254066616207 L 1008 498.1254066616207 L 739.4509448950844 498.1235418980805 L 739.2515944646658 501.0014346413367 L 739.8107526420188 508.7890625 L 740.1818727772013 511.6662477772014 L 742.134087036846 521.5377879631538 L 743.4766065868565 526.3671875 L 746.928798333556 535.9912983335561 L 752.0586100600315 546.7695149399684 L 755.4909151437658 552.734375 L 761.346266283304 561.5234375 L 768.1819050265249 570.3125 L 774.3009494173293 577.2615505826707 L 784.9105058503375 587.890625 L 798.828125 599.9702344751518 L 811.8767880037863 609.9982119962137 L 816.40625 613.2590393498691 L 839.5806483900246 628.6431483900246 L 859.5445330087455 640.625 L 876.9391182513718 650.4046317486283 L 904.296875 664.9050338411199 L 939.453125 682.4537905789462 L 974.609375 699.1976817788957 L 1008 714.541677245146" stroke-linecap="round" stroke-linejoin="round" stroke-miterlimit="10" stroke-width="5" stroke-dasharray=""/></g><g><path fill="none" stroke="#2d70b3" class="dcg-svg-curve" paint-order="fill stroke markers" d=" M 977.3472141379729 1008 L 977.3472141379729 1008 L 763.671875 792.8708648563446 L 728.515625 758.9425538929613 L 710.9375 742.6819481082849 L 684.5553556811221 719.7116056811221 L 673.7172641675375 710.9375 L 654.7824349831757 696.7800650168242 L 640.625 687.3181882700959 L 633.4663368095656 682.9399131904343 L 620.5516989795246 675.78125 L 605.46875 668.7004653395537 L 593.9759135609801 664.2884135609801 L 584.7097191931045 661.3840308068955 L 570.3125 658.0931849058832 L 550.7310636846662 656.1998136846662 L 548.70206804746 656.1869715237301 L 534.1485239964616 657.1953989964617 L 525.8754896351446 658.6948228648553 L 517.578125 660.9433654878252 L 513.228455283615 662.642517783615 L 518.8287424845881 677.0318674845881 L 528.5158936390619 699.9997313609381 L 535.15625 714.8029279107166 L 554.0346349061758 754.8828125 L 600.1718604522332 851.5625 L 624.4659155841077 904.296875 L 648.1464798040602 957.03125 L 670.5285773961193 1008" stroke-linecap="round" stroke-linejoin="round" stroke-miterlimit="10" stroke-width="5" stroke-dasharray=""/></g><g><path fill="none" stroke="#2d70b3" class="dcg-svg-curve" paint-order="fill stroke markers" d=" M 457.3523906816918 1008 L 457.3523906816918 1008 L 456.31674349071614 974.609375 L 454.17513224771176 921.875 L 451.6710248465648 873.5460248465648 L 447.265625 793.086840733079 L 447.03264199236196 781.25 L 447.38888097327884 763.5486190267211 L 449.0917410031734 746.09375 L 451.7089758304853 732.9589758304853 L 452.92744900016777 728.515625 L 455.84025965419573 719.9409903458043 L 461.5344021216828 707.6281521216828 L 464.84375 701.9920334748007 L 470.95293226677006 693.359375 L 476.2513572812588 687.1888572812588 L 482.421875 681.1268601073843 L 488.90612577889965 675.78125 L 497.8589877701463 669.7809595776098 L 504.39453125 666.2469686339175 L 512.833248919448 662.59765625 L 513.1184805175413 662.5325430175413 L 504.2195751297136 636.4054248702864 L 500 622.2088126677318 L 494.294105804362 599.7628558043621 L 490.2428674104741 580.0696325895259 L 488.5588560112195 570.3125 L 485.6716054603386 549.4846445396614 L 484.2441719669062 535.15625 L 482.8647087948221 510.49278428284674 L 482.7103989011729 498.09475235986616" stroke-linecap="round" stroke-linejoin="round" stroke-miterlimit="10" stroke-width="5" stroke-dasharray=""/></g><g><path fill="none" stroke="#2d70b3" class="dcg-svg-curve" paint-order="fill stroke markers" d=" M 484.619140625 498.1255421243427 L 484.619140625 498.1255421243427 L 484.94005920757047 498.12365295757047" stroke-linecap="round" stroke-linejoin="round" stroke-miterlimit="10" stroke-width="5" stroke-dasharray=""/></g><g><path fill="none" stroke="#2d70b3" class="dcg-svg-curve" paint-order="fill stroke markers" d=" M 973.6273526850565 -8 L 973.6273526850565 -8 L 763.671875 203.38007231328578 L 728.515625 237.3085934763463 L 710.5651540625981 253.90625 L 690.5739149593593 271.484375 L 668.9030590788126 289.0625 L 652.5755338466383 301.01303384663834 L 640.625 308.9330928111651 L 631.1010059201838 314.6947559201839 L 623.046875 319.1635626692423 L 607.799875399833 326.5498753998331 L 596.6796875 331.0039840342199 L 587.890625 333.9376778054183 L 574.8157877813835 337.29358721861644 L 570.3125 338.15786409191537 L 552.734375 340.0033182868582 L 545.6003904213794 340.01337885534485 L 530.76171875 338.52746935171467 L 522.6100804827649 336.76491951723506 L 517.578125 335.30673409601104 L 513.8014739783188 334.01362319551436" stroke-linecap="round" stroke-linejoin="round" stroke-miterlimit="10" stroke-width="5" stroke-dasharray=""/></g><g><path fill="none" stroke="#2d70b3" class="dcg-svg-curve" paint-order="fill stroke markers" d=" M 513.3983543271253 333.2225730771253 L 513.3983543271253 333.2225730771253 L 514.9435162779557 329.11717099731993 L 522.1194603063516 311.1819603063516 L 531.7082653014662 289.0625 L 543.8967013429204 262.64670134292044 L 570.3125 207.56053082122145 L 598.4180776090197 148.43750000000006 L 623.046875 95.07497366505817 L 651.1547609690269 32.43898903097323 L 668.9056557265203 -8" stroke-linecap="round" stroke-linejoin="round" stroke-miterlimit="10" stroke-width="5" stroke-dasharray=""/></g><g><path fill="none" stroke="#2d70b3" class="dcg-svg-curve" paint-order="fill stroke markers" d=" M 311.57645795001815 741.1579170499818 L 311.57645795001815 741.1579170499818 L 315.4296875 742.8726763599659 L 320.25917954709155 746.09375 L 324.21875 750.1033239406665 L 327.37062438897476 754.8828125 L 329.13531247334976 758.7553125266502 L 330.66699012590055 763.671875 L 332.0787464768715 773.3900035231286 L 332.1321289129046 781.25 L 331.15036696384027 791.8965080361597 L 329.07198749734584 803.6813624973458 L 326.02438420714657 816.40625 L 324.21875 822.9524493168547 L 317.40577998412135 844.7495299841214 L 308.83960900466525 869.140625 L 298.6451827640078 896.3014327640077 L 281.7159222193301 939.453125 L 258.56123502928074 996.8424850292806 L 254.00837303221542 1008" stroke-linecap="round" stroke-linejoin="round" stroke-miterlimit="10" stroke-width="5" stroke-dasharray=""/></g><g><path fill="none" stroke="#2d70b3" class="dcg-svg-curve" paint-order="fill stroke markers" d=" M -8 979.716087235263 L -8 979.716087235263 L 42.96875000000006 930.4210126795213 L 89.00001687709988 886.71875 L 126.94772755575855 851.5625 L 156.82784764625 824.7965976462499 L 183.59374999999997 801.9138291834794 L 201.17187499999997 787.7192883570568 L 218.75000000000003 774.457730797022 L 239.59531793907843 760.4046820609216 L 257.93991215726 750.1274121572601 L 271.484375 744.245212179824 L 283.56781451950786 740.5990645195078 L 289.0625 739.5573311727622 L 299.4591197301428 738.9122447301428 L 306.640625 739.7553175666237 L 311.57645795001815 741.1579170499818" stroke-linecap="round" stroke-linejoin="round" stroke-miterlimit="10" stroke-width="5" stroke-dasharray=""/></g></g><g id="sketch-a97209b7"><title>Z₁</title><path fill="none" stroke="#000000" class="dcg-svg-point" paint-order="fill stroke markers" d=" M 797.7210327057929 498.02554093606466 L 797.7210327057929 498.2255409360647 L 797.921032705793 498.2255409360647 L 797.921032705793 498.02554093606466" stroke-linecap="round" stroke-linejoin="round" stroke-miterlimit="10" stroke-width="31.875" stroke-dasharray=""/></g><g id="sketch-a97209b7"><title>Z₂</title><path fill="none" stroke="#000000" class="dcg-svg-point" paint-order="fill stroke markers" d=" M 513.0797320174695 333.68780936117616 L 513.0797320174695 333.8878093611762 L 513.2797320174695 333.8878093611762 L 513.2797320174695 333.68780936117616" stroke-linecap="round" stroke-linejoin="round" stroke-miterlimit="10" stroke-width="33.75" stroke-dasharray=""/></g><g id="sketch-a97209b7"><title>Z₃</title><path fill="none" stroke="#000000" class="dcg-svg-point" paint-order="fill stroke markers" d=" M 323.31886489192055 246.99550944297764 L 323.31886489192055 247.19550944297762 L 323.5188648919206 247.19550944297762 L 323.5188648919206 246.99550944297764" stroke-linecap="round" stroke-linejoin="round" stroke-miterlimit="10" stroke-width="33.75" stroke-dasharray=""/></g><g id="sketch-a97209b7"><title>Z₄</title><path fill="none" stroke="#000000" class="dcg-svg-point" paint-order="fill stroke markers" d=" M 228.4384313291461 498.02554093606466 L 228.4384313291461 498.2255409360647 L 228.6384313291461 498.2255409360647 L 228.6384313291461 498.02554093606466" stroke-linecap="round" stroke-linejoin="round" stroke-miterlimit="10" stroke-width="33.75" stroke-dasharray=""/></g><g id="sketch-a97209b7"><title>Z₅</title><path fill="none" stroke="#000000" class="dcg-svg-point" paint-order="fill stroke markers" d=" M 323.31886489192055 749.0555724291518 L 323.31886489192055 749.2555724291518 L 323.5188648919206 749.2555724291518 L 323.5188648919206 749.0555724291518" stroke-linecap="round" stroke-linejoin="round" stroke-miterlimit="10" stroke-width="33.75" stroke-dasharray=""/></g><g id="sketch-a97209b7"><title>Z₆</title><path fill="none" stroke="#000000" class="dcg-svg-point" paint-order="fill stroke markers" d=" M 513.0797320174695 662.3632725109532 L 513.0797320174695 662.5632725109532 L 513.2797320174695 662.5632725109532 L 513.2797320174695 662.3632725109532" stroke-linecap="round" stroke-linejoin="round" stroke-miterlimit="10" stroke-width="33.75" stroke-dasharray=""/></g></g><g id="labels-a97209b7"><g transform="rotate(0,0,0) translate(770,464)"><g class="dcg-svg-label"><text fill="none" stroke="#FFF" font-family="arial, sans-serif" font-size="22px" font-style="normal" font-weight="400" text-decoration="normal" x="0" y="19.984" text-anchor="start" stroke-linecap="round" stroke-linejoin="round" stroke-miterlimit="2" stroke-width="3" stroke-dasharray="">Z₁</text><text fill="rgb(0, 0, 0)" stroke="none" font-family="arial, sans-serif" font-size="22px" font-style="normal" font-weight="400" text-decoration="normal" x="0" y="19.984" text-anchor="start">Z₁</text></g></g><g transform="rotate(0,0,0) translate(485,342)"><g class="dcg-svg-label"><text fill="none" stroke="#FFF" font-family="arial, sans-serif" font-size="22px" font-style="normal" font-weight="400" text-decoration="normal" x="0" y="19.984" text-anchor="start" stroke-linecap="round" stroke-linejoin="round" stroke-miterlimit="2" stroke-width="3" stroke-dasharray="">Z₂</text><text fill="rgb(0, 0, 0)" stroke="none" font-family="arial, sans-serif" font-size="22px" font-style="normal" font-weight="400" text-decoration="normal" x="0" y="19.984" text-anchor="start">Z₂</text></g></g><g transform="rotate(0,0,0) translate(338,234)"><g class="dcg-svg-label"><text fill="none" stroke="#FFF" font-family="arial, sans-serif" font-size="22px" font-style="normal" font-weight="400" text-decoration="normal" x="0" y="19.984" text-anchor="start" stroke-linecap="round" stroke-linejoin="round" stroke-miterlimit="2" stroke-width="3" stroke-dasharray="">Z₃</text><text fill="rgb(0, 0, 0)" stroke="none" font-family="arial, sans-serif" font-size="22px" font-style="normal" font-weight="400" text-decoration="normal" x="0" y="19.984" text-anchor="start">Z₃</text></g></g><g transform="rotate(0,0,0) translate(237,464)"><g class="dcg-svg-label"><text fill="none" stroke="#FFF" font-family="arial, sans-serif" font-size="22px" font-style="normal" font-weight="400" text-decoration="normal" x="0" y="19.984" text-anchor="start" stroke-linecap="round" stroke-linejoin="round" stroke-miterlimit="2" stroke-width="3" stroke-dasharray="">Z₄</text><text fill="rgb(0, 0, 0)" stroke="none" font-family="arial, sans-serif" font-size="22px" font-style="normal" font-weight="400" text-decoration="normal" x="0" y="19.984" text-anchor="start">Z₄</text></g></g><g transform="rotate(0,0,0) translate(338,736)"><g class="dcg-svg-label"><text fill="none" stroke="#FFF" font-family="arial, sans-serif" font-size="22px" font-style="normal" font-weight="400" text-decoration="normal" x="0" y="19.984" text-anchor="start" stroke-linecap="round" stroke-linejoin="round" stroke-miterlimit="2" stroke-width="3" stroke-dasharray="">Z₅</text><text fill="rgb(0, 0, 0)" stroke="none" font-family="arial, sans-serif" font-size="22px" font-style="normal" font-weight="400" text-decoration="normal" x="0" y="19.984" text-anchor="start">Z₅</text></g></g><g transform="rotate(0,0,0) translate(485,628)"><g class="dcg-svg-label"><text fill="none" stroke="#FFF" font-family="arial, sans-serif" font-size="22px" font-style="normal" font-weight="400" text-decoration="normal" x="0" y="19.984" text-anchor="start" stroke-linecap="round" stroke-linejoin="round" stroke-miterlimit="2" stroke-width="3" stroke-dasharray="">Z₆</text><text fill="rgb(0, 0, 0)" stroke="none" font-family="arial, sans-serif" font-size="22px" font-style="normal" font-weight="400" text-decoration="normal" x="0" y="19.984" text-anchor="start">Z₆</text></g></g></g><g id="labels-a97209b7"/></g></svg>